<svg width="212" height="128" viewBox="0 0 212 128" fill="none" xmlns="http://www.w3.org/2000/svg">
<path d="M73.6286 85.839H79.0179V88.911H70.4417V68.0942H73.6286V85.839" fill="#1A1919"/>
<path fill-rule="evenodd" clip-rule="evenodd" d="M88.2301 89.2519C94.0714 89.2519 98.9179 84.5164 98.9179 78.5293C98.9179 72.5725 94.0754 67.7541 88.2301 67.7541C82.3848 67.7541 77.5427 72.5725 77.5427 78.5293C77.5427 84.5164 82.3892 89.2519 88.2301 89.2519ZM88.2301 86.1809C84.0863 86.1809 80.7301 82.6902 80.7301 78.503C80.7301 74.2882 84.0359 70.8251 88.2301 70.8251C92.4247 70.8251 95.7305 74.2882 95.7305 78.503C95.7305 82.6902 92.374 86.1809 88.2301 86.1809Z" fill="#1A1919"/>
<path d="M105.674 88.911H102.487V71.1658H97.7717V68.0942H110.442V71.1658H105.674V88.911" fill="#1A1919"/>
<path d="M120.491 73.1864L120.226 72.7215C119.51 71.464 118.722 70.825 117.295 70.825C115.788 70.825 114.562 71.9045 114.562 73.3845C114.562 74.0302 114.88 74.5205 115.406 74.9465C115.946 75.3843 116.648 75.7069 117.321 76.0146L118.613 76.5901C121.155 77.7203 123.604 79.1269 123.604 82.6239C123.604 86.3842 120.618 89.2518 116.959 89.2518C113.571 89.2518 111.042 87.0205 110.375 83.7242L110.281 83.257L113.414 82.367L113.495 82.9452C113.751 84.7637 115.107 86.1808 116.906 86.1808C118.77 86.1808 120.417 84.7393 120.417 82.8337C120.417 80.9019 118.997 80.2353 117.111 79.3625L115.924 78.8391C113.648 77.791 111.375 76.4863 111.375 73.3056C111.375 69.882 114.24 67.754 117.347 67.754C119.712 67.754 121.72 68.9879 122.844 71.0933L123.067 71.5111L120.491 73.1864" fill="#1A1919"/>
<path fill-rule="evenodd" clip-rule="evenodd" d="M70.4387 65.4347V38.7622H81.5268C86.6013 38.7622 91.7809 40.0002 91.7809 46.1555C91.7809 48.4906 90.6339 50.7895 88.3393 51.5327V51.7448C91.1896 52.7707 92.997 54.8929 92.997 58.0772C92.997 63.5595 87.992 65.4347 83.4037 65.4347H70.4387ZM79.2674 49.0208H80.1361C81.5268 49.0208 83.0911 48.8799 83.0911 47.0396C83.0911 45.1815 81.5312 45.1912 80.1901 45.1996H80.19C80.1015 45.2001 80.0139 45.2007 79.9278 45.2007H79.2674V49.0208ZM79.2674 59.0673V54.6458H80.2056C80.2292 54.6458 80.253 54.6458 80.277 54.6458C81.8096 54.6453 84.1687 54.6444 84.1687 56.8387C84.1687 59.032 81.9088 59.0673 80.345 59.0673H79.2674Z" fill="#1A1919"/>
<path d="M94.7534 65.4347H104.277V38.7622H94.7534V65.4347Z" fill="#1A1919"/>
<path d="M119.944 49.7286H134.648C134.634 50.5747 134.623 51.3945 134.592 52.1907L129.044 51.0346L128.644 52.0112C127.176 55.5966 126.059 60.188 125.293 65.0577C123.69 65.5865 122.01 65.8593 120.362 65.8593C112.368 65.8593 105.902 60.8356 105.902 52.2754C105.902 43.5734 112.194 38.3376 120.431 38.3376C124.985 38.3376 131.241 40.6374 133.292 45.2007L124.394 48.526C123.664 47.1819 122.309 46.4741 120.779 46.4741C117.373 46.4741 115.496 49.4454 115.496 52.6647C115.496 55.6007 117.303 58.36 120.397 58.36C121.892 58.36 123.803 57.6521 124.255 56.0248H119.944V49.7286" fill="#1A1919"/>
<path fill-rule="evenodd" clip-rule="evenodd" d="M129.866 52.4467C127.011 59.4177 125.49 70.4584 125.361 79.7953L132.577 80.8997C134.208 72.2611 137.262 62.4461 141.792 54.9305L129.866 52.4467ZM125.364 82.5003C125.402 84.858 125.538 87.0577 125.772 88.9936L131.345 89.8863C131.498 87.9463 131.752 85.8305 132.106 83.6051L125.364 82.5003Z" fill="#E37D32"/>
<path d="M133.405 87.8501H133.908V89.1828H134.109V87.8501H134.612V87.6693H133.405V87.8501" fill="#1A1919"/>
<path d="M136.217 89.1828V87.6693H135.932L135.509 88.949H135.505L135.08 87.6693H134.793V89.1828H134.987V88.2892C134.987 88.2448 134.983 88.0526 134.983 87.914H134.987L135.406 89.1828H135.604L136.022 87.9121H136.027C136.027 88.0526 136.022 88.2448 136.022 88.2892V89.1828H136.217" fill="#1A1919"/>
<path d="M73.6286 85.839H79.0179V88.911H70.4417V68.0942H73.6286V85.839" fill="#1A1919"/>
<path fill-rule="evenodd" clip-rule="evenodd" d="M88.2301 89.2519C94.0714 89.2519 98.9179 84.5164 98.9179 78.5293C98.9179 72.5725 94.0754 67.7541 88.2301 67.7541C82.3848 67.7541 77.5427 72.5725 77.5427 78.5293C77.5427 84.5164 82.3892 89.2519 88.2301 89.2519ZM88.2301 86.1809C84.0863 86.1809 80.7301 82.6902 80.7301 78.503C80.7301 74.2882 84.0359 70.8251 88.2301 70.8251C92.4247 70.8251 95.7305 74.2882 95.7305 78.503C95.7305 82.6902 92.374 86.1809 88.2301 86.1809Z" fill="#1A1919"/>
<path d="M105.674 88.911H102.487V71.1658H97.7717V68.0942H110.442V71.1658H105.674V88.911" fill="#1A1919"/>
<path d="M120.491 73.1864L120.226 72.7215C119.51 71.464 118.722 70.825 117.295 70.825C115.788 70.825 114.562 71.9045 114.562 73.3845C114.562 74.0302 114.88 74.5205 115.406 74.9465C115.946 75.3843 116.648 75.7069 117.321 76.0146L118.613 76.5901C121.155 77.7203 123.604 79.1269 123.604 82.6239C123.604 86.3842 120.618 89.2518 116.959 89.2518C113.571 89.2518 111.042 87.0205 110.375 83.7242L110.281 83.257L113.414 82.367L113.495 82.9452C113.751 84.7637 115.107 86.1808 116.906 86.1808C118.77 86.1808 120.417 84.7393 120.417 82.8337C120.417 80.9019 118.997 80.2353 117.111 79.3625L115.924 78.8391C113.648 77.791 111.375 76.4863 111.375 73.3056C111.375 69.882 114.24 67.754 117.347 67.754C119.712 67.754 121.72 68.9879 122.844 71.0933L123.067 71.5111L120.491 73.1864" fill="#1A1919"/>
<path fill-rule="evenodd" clip-rule="evenodd" d="M70.4387 65.4347V38.7622H81.5268C86.6013 38.7622 91.7809 40.0002 91.7809 46.1555C91.7809 48.4906 90.6339 50.7895 88.3393 51.5327V51.7448C91.1896 52.7707 92.997 54.8929 92.997 58.0772C92.997 63.5595 87.992 65.4347 83.4037 65.4347H70.4387ZM79.2674 49.0208H80.1361C81.5268 49.0208 83.0911 48.8799 83.0911 47.0396C83.0911 45.1815 81.5312 45.1912 80.1901 45.1996H80.19C80.1015 45.2001 80.0139 45.2007 79.9278 45.2007H79.2674V49.0208ZM79.2674 59.0673V54.6458H80.2056C80.2292 54.6458 80.253 54.6458 80.277 54.6458C81.8096 54.6453 84.1687 54.6444 84.1687 56.8387C84.1687 59.032 81.9088 59.0673 80.345 59.0673H79.2674Z" fill="#1A1919"/>
<path d="M94.7534 65.4347H104.277V38.7622H94.7534V65.4347Z" fill="#1A1919"/>
<path d="M119.944 49.7286H134.648C134.634 50.5747 134.623 51.3945 134.592 52.1907L129.044 51.0346L128.644 52.0112C127.176 55.5966 126.059 60.188 125.293 65.0577C123.69 65.5865 122.01 65.8593 120.362 65.8593C112.368 65.8593 105.902 60.8356 105.902 52.2754C105.902 43.5734 112.194 38.3376 120.431 38.3376C124.985 38.3376 131.241 40.6374 133.292 45.2007L124.394 48.526C123.664 47.1819 122.309 46.4741 120.779 46.4741C117.373 46.4741 115.496 49.4454 115.496 52.6647C115.496 55.6007 117.303 58.36 120.397 58.36C121.892 58.36 123.803 57.6521 124.255 56.0248H119.944V49.7286" fill="#1A1919"/>
<path fill-rule="evenodd" clip-rule="evenodd" d="M129.866 52.4467C127.011 59.4177 125.49 70.4584 125.361 79.7953L132.577 80.8997C134.208 72.2611 137.262 62.4461 141.792 54.9305L129.866 52.4467ZM125.364 82.5003C125.402 84.858 125.538 87.0577 125.772 88.9936L131.345 89.8863C131.498 87.9463 131.752 85.8305 132.106 83.6051L125.364 82.5003Z" fill="#EB8B41"/>
<path d="M133.405 87.8501H133.908V89.1828H134.109V87.8501H134.612V87.6693H133.405V87.8501" fill="#1A1919"/>
<path d="M136.217 89.1828V87.6693H135.932L135.509 88.949H135.505L135.08 87.6693H134.793V89.1828H134.987V88.2892C134.987 88.2448 134.983 88.0526 134.983 87.914H134.987L135.406 89.1828H135.604L136.022 87.9121H136.027C136.027 88.0526 136.022 88.2448 136.022 88.2892V89.1828H136.217" fill="#1A1919"/>
</svg>
