<?xml version="1.0" encoding="utf-8"?>
<!-- Generator: Adobe Illustrator 25.2.1, SVG Export Plug-In . SVG Version: 6.00 Build 0)  -->
<svg version="1.1" id="Layer_1" xmlns="http://www.w3.org/2000/svg" xmlns:xlink="http://www.w3.org/1999/xlink" x="0px" y="0px"
	 viewBox="0 0 140.9 41.7" style="enable-background:new 0 0 140.9 41.7;" xml:space="preserve">
<style type="text/css">
	.st0{fill:#FFFFFF;}
</style>
<g>
	<path class="st0" d="M50.2,13.3c0.8-0.7,1.2-1.7,1.1-2.8c0.1-1-0.3-1.9-1-2.5c-0.8-0.6-1.7-0.9-2.7-0.8c-0.6,0-1.3,0-1.9,0.1V14
		c0.5,0.1,1.1,0.1,1.6,0.1C48.3,14.2,49.4,13.9,50.2,13.3z M46.8,8.1C47.1,8,47.4,8,47.7,8c0.7,0,1.4,0.2,1.9,0.6
		c0.5,0.5,0.7,1.2,0.6,1.8v0c0,0.7-0.2,1.5-0.7,2c-0.5,0.5-1.2,0.8-1.9,0.7h-0.7V8.1z"/>
	<path class="st0" d="M28.2,10.8c1-1.2,1.5-2.7,1.4-4.3c-1.5,0.1-2.9,0.9-3.9,2c-0.9,1-1.4,2.3-1.4,3.6c0,0.2,0,0.4,0,0.5
		c0.8,0,1.6-0.2,2.3-0.5C27.2,11.8,27.7,11.3,28.2,10.8z"/>
	<path class="st0" d="M61,14.1l0.7-2.1c0.2-0.5,0.3-1.1,0.4-1.6c0.1,0.5,0.2,1.1,0.4,1.6l0.6,2.1h1l1.5-4.9h-1.1l-0.6,2.3
		c-0.1,0.5-0.3,1.1-0.3,1.6c-0.1-0.5-0.2-1.1-0.4-1.6l-0.7-2.3h-0.9l-0.7,2.4c-0.2,0.6-0.3,1.2-0.4,1.6c-0.1-0.5-0.2-1-0.3-1.6
		l-0.6-2.3h-1.1l1.5,4.9H61z"/>
	<path class="st0" d="M31.5,20.7L31.5,20.7c0-2.1,1.1-4,2.9-5.1c-0.9-1.3-2.4-2.3-4-2.5C30.1,13,29.8,13,29.5,13
		c-1.1-0.1-2.1,0.2-3,0.6c-0.8,0.3-1.6,0.7-2.1,0.7c-1,0-2.7-1.2-4.4-1.2c-2.3,0.1-4.4,1.4-5.5,3.4c-2.4,4.1-0.6,10.1,1.7,13.5
		c1.1,1.6,2.5,3.4,4.2,3.4s2.3-1.1,4.4-1.1s2.6,1.1,4.4,1c1.8-0.1,3-1.6,4.1-3.3c0.8-1.2,1.5-2.4,1.9-3.8
		C32.9,25.2,31.5,23.1,31.5,20.7z"/>
	<path class="st0" d="M70.2,11.2v2.8h1.1l0,0v-3c0-0.6-0.2-1.2-0.6-1.6C70.5,9.2,70.1,9,69.6,9c-0.3,0-0.7,0.1-1,0.3
		c-0.2,0.2-0.4,0.3-0.6,0.6V9.1h-1v4.9h1.1v-2.9c0-0.3,0.1-0.6,0.3-0.8c0.2-0.2,0.5-0.4,0.8-0.4C69.9,9.9,70.2,10.4,70.2,11.2z"/>
	<path class="st0" d="M55.1,9c-0.7,0-1.3,0.2-1.8,0.7c-0.5,0.5-0.7,1.2-0.7,1.9c0,0.7,0.2,1.3,0.6,1.8c0.4,0.5,1.1,0.8,1.7,0.7
		c0.7,0,1.4-0.2,1.8-0.8c0.4-0.5,0.7-1.2,0.7-1.9c0-0.7-0.2-1.3-0.6-1.8C56.3,9.3,55.7,9,55.1,9z M56,12.7c-0.2,0.4-0.6,0.6-1,0.6
		c-0.4,0-0.8-0.2-1-0.6c-0.2-0.4-0.3-0.8-0.3-1.2c0-0.4,0.1-0.8,0.3-1.2c0.1-0.2,0.3-0.4,0.5-0.5c0.6-0.3,1.2-0.1,1.5,0.5
		c0.2,0.3,0.3,0.8,0.3,1.2C56.3,12,56.2,12.4,56,12.7z"/>
	<path class="st0" d="M48.9,19L44.4,33h2.3l1.2-4.1h4.5l1.3,4.1h2.4L51.6,19H48.9z M48.4,27.2l1.2-3.6c0.3-1.2,0.5-2,0.7-2.6
		c0.3,1.4,0.6,2.3,0.7,2.6l1.2,3.6H48.4z"/>
	<path class="st0" d="M104.4,11.1c0-0.3,0.1-0.6,0.3-0.8c0.2-0.2,0.5-0.4,0.8-0.4c0.7,0,1,0.4,1,1.3v2.8h1.1l0,0v-3
		c0-0.6-0.2-1.2-0.6-1.6c-0.3-0.3-0.7-0.5-1.2-0.5c-0.3,0-0.7,0.1-1,0.3c-0.2,0.2-0.4,0.3-0.6,0.6V9.1h-1v4.9h1.1V11.1z"/>
	<rect x="73.3" y="6.9" class="st0" width="1.1" height="7.2"/>
	<path class="st0" d="M99.3,14.2c0.7,0,1.3-0.2,1.8-0.8c0.4-0.5,0.7-1.2,0.6-1.9c0-0.7-0.2-1.3-0.7-1.8l0,0c-1-1-2.5-1-3.5,0
		c-0.5,0.5-0.7,1.2-0.7,1.9c0,0.7,0.2,1.3,0.7,1.8C98,13.9,98.6,14.2,99.3,14.2z M98.3,10.4c0.2-0.4,0.6-0.6,1-0.6
		c0.4,0,0.8,0.2,1,0.6c0.2,0.4,0.3,0.8,0.3,1.2l0,0c0,0.4-0.1,0.8-0.3,1.2c-0.1,0.2-0.3,0.4-0.5,0.5c-0.6,0.3-1.2,0.1-1.5-0.5
		C98.1,12.4,98,12,98,11.6C98,11.1,98.1,10.7,98.3,10.4z"/>
	<path class="st0" d="M77.2,23.4c-0.7-0.5-1.5-0.7-2.2-0.7c-1.3,0-2.6,0.6-3.3,1.8l-0.1-1.6h-2c0.1,1.1,0.1,2.2,0.1,3.3v10.8h2.3
		v-5.3c0.6,1,1.7,1.5,2.8,1.4c1.2,0,2.3-0.5,3.1-1.3c1-1.1,1.5-2.5,1.4-4c0.1-1.4-0.3-2.7-1.2-3.7C77.8,23.9,77.5,23.6,77.2,23.4z
		 M76.2,30.5c-0.4,0.7-1.2,1-2,1c-0.7,0-1.3-0.2-1.7-0.8c-0.4-0.5-0.7-1.2-0.7-1.8v-1.8c0-0.2,0-0.5,0.1-0.7
		c0.1-0.6,0.4-1.1,0.9-1.4c0.4-0.4,0.9-0.5,1.5-0.5c0.8,0,1.5,0.4,1.9,1c0.5,0.7,0.7,1.6,0.7,2.4C76.9,28.8,76.7,29.7,76.2,30.5z"/>
	<path class="st0" d="M124.9,14.1c0.6,0,1.1-0.1,1.6-0.3l-0.2-0.8c-0.4,0.2-0.9,0.2-1.3,0.2c-0.4,0-0.8-0.1-1.1-0.4
		c-0.3-0.3-0.5-0.7-0.5-1.1h3.3c0-0.2,0-0.3,0-0.5c0-0.5-0.1-1.1-0.4-1.5c-0.4-0.5-1-0.8-1.6-0.8c-0.7,0-1.3,0.3-1.7,0.8
		c-0.4,0.5-0.6,1.2-0.6,1.8c0,0.7,0.2,1.3,0.7,1.8C123.6,14,124.2,14.2,124.9,14.1z M123.8,10.2c0.2-0.3,0.5-0.5,0.9-0.4
		c0.3,0,0.7,0.2,0.9,0.5c0.1,0.2,0.2,0.5,0.2,0.8l-2.3,0C123.5,10.8,123.6,10.5,123.8,10.2z"/>
	<path class="st0" d="M65.6,23.4c-0.7-0.5-1.5-0.7-2.2-0.7c-1.3,0-2.6,0.6-3.3,1.8L60,22.9h-2c0.1,1.1,0.1,2.2,0.1,3.3V37h2.3v-5.3
		c0.6,1,1.7,1.5,2.8,1.4c1.2,0,2.3-0.5,3.1-1.3c1-1.1,1.5-2.5,1.4-4c0.1-1.4-0.4-2.7-1.2-3.7C66.2,23.9,65.9,23.6,65.6,23.4z
		 M64.7,30.5c-0.5,0.7-1.2,1-2,1c-0.7,0-1.3-0.2-1.7-0.8c-0.4-0.5-0.7-1.2-0.7-1.8v-1.8c0-0.2,0-0.5,0.1-0.7
		c0.1-0.6,0.4-1.1,0.9-1.4c0,0,0.1-0.1,0.1-0.1c1.1-0.8,2.5-0.5,3.3,0.6c0.5,0.7,0.7,1.6,0.7,2.4C65.4,28.8,65.2,29.7,64.7,30.5z"/>
	<path class="st0" d="M92.3,6.9h-1.1v2.8C90.9,9.2,90.4,9,89.8,9c-0.6,0-1.2,0.2-1.5,0.7c-0.4,0.5-0.7,1.2-0.6,1.9
		c0,0.7,0.2,1.3,0.6,1.8c0.4,0.4,0.9,0.7,1.5,0.7h0.1c0.6,0,1.2-0.3,1.5-0.9l0,0.8h1c0-0.4,0-0.9-0.1-1.3V6.9z M91.2,11.2V12h0
		c0,0.3-0.1,0.7-0.3,0.9c-0.2,0.3-0.5,0.4-0.8,0.4c-0.4,0-0.8-0.2-1-0.5c-0.2-0.3-0.3-0.8-0.3-1.2c0-0.4,0.1-0.9,0.3-1.2
		c0.2-0.3,0.6-0.5,1-0.5c0.3,0,0.6,0.1,0.8,0.3c0.2,0.2,0.3,0.4,0.4,0.7C91.2,10.9,91.2,11,91.2,11.2z"/>
	<path class="st0" d="M91.2,26.6c-0.7-0.8-1.6-1.3-2.6-1.7c-0.7-0.2-1.4-0.6-2-1.1c-0.4-0.3-0.6-0.8-0.6-1.3c0-0.5,0.2-0.9,0.6-1.3
		c0.5-0.4,1.2-0.6,1.8-0.6c0.9,0,1.8,0.2,2.7,0.6l0.6-1.8c-1-0.5-2.1-0.7-3.2-0.7C87.2,18.8,86,19.2,85,20c-0.8,0.7-1.3,1.7-1.3,2.8
		c0,1.8,1.2,3.1,3.7,4c0.7,0.2,1.4,0.6,1.9,1.1c0.4,0.4,0.6,0.9,0.6,1.4c0,0.6-0.2,1.1-0.7,1.5c-0.6,0.4-1.3,0.6-2,0.6
		c-1.1,0-2.3-0.3-3.2-0.9l-0.5,1.9c1.1,0.6,2.4,0.9,3.6,0.9c1.4,0.1,2.7-0.3,3.8-1.2c0.8-0.7,1.3-1.8,1.2-2.9l0,0
		C92.1,28.2,91.8,27.3,91.2,26.6z"/>
	<path class="st0" d="M97,20.4l-2.2,0.7v1.8h-1.5v1.7h1.5v5.1c-0.1,1,0.2,1.9,0.8,2.7c0.5,0.5,1.3,0.8,2.1,0.8
		c0.6,0,1.2-0.1,1.7-0.2l-0.1-1.7c-0.3,0.1-0.7,0.1-1,0.1c-0.9,0-1.3-0.6-1.3-1.9v-4.9h2.5v-1.7H97V20.4z"/>
	<path class="st0" d="M119.7,11.3v2.8h1.1l0.1,0v-2.9c0-0.6-0.2-1.2-0.5-1.7c-0.3-0.3-0.7-0.5-1.1-0.4h0c-0.6,0-1.1,0.3-1.4,0.8v-3
		h-1.1v7.2h1.1v-3c0-0.1,0-0.3,0-0.4c0.1-0.5,0.5-0.8,1-0.8C119.4,9.9,119.7,10.4,119.7,11.3z"/>
	<path class="st0" d="M105.7,22.7c-1.4-0.1-2.7,0.5-3.6,1.5c-0.9,1.1-1.4,2.4-1.4,3.8c0,1.4,0.4,2.7,1.3,3.7c0.9,1,2.2,1.5,3.5,1.5
		c1.4,0,2.7-0.5,3.7-1.5c0.9-1.1,1.4-2.4,1.3-3.8c0-1.4-0.4-2.7-1.3-3.7C108.4,23.2,107.1,22.7,105.7,22.7z M107.7,30.3
		c-0.4,0.8-1.2,1.2-2,1.2c-0.8,0-1.6-0.5-2-1.2c-0.4-0.7-0.6-1.5-0.6-2.4c0-0.8,0.2-1.7,0.6-2.4c0.4-0.7,1.2-1.2,2-1.2
		c0.8,0,1.6,0.5,2,1.2c0.4,0.7,0.6,1.5,0.6,2.4h0C108.3,28.8,108.1,29.6,107.7,30.3z"/>
	<path class="st0" d="M115.6,23.3c-0.5,0.4-0.9,1-1.1,1.6h-0.1l-0.1-1.9h-1.9c0.1,0.9,0.1,2,0.1,3.2V33h2.2v-5.3
		c0-0.7,0.2-1.4,0.5-2c0.4-0.6,1.1-0.9,1.8-0.9c0.2,0,0.5,0,0.7,0.1v-2.2c-0.2,0-0.4,0-0.6,0C116.7,22.7,116.1,22.9,115.6,23.3z"/>
	<path class="st0" d="M78.5,9c-0.7,0-1.3,0.2-1.8,0.7c-0.5,0.5-0.7,1.2-0.7,1.9c0,0.7,0.2,1.3,0.7,1.8c0.4,0.5,1.1,0.8,1.7,0.7
		c0.7,0,1.3-0.2,1.8-0.8c0.5-0.5,0.7-1.2,0.7-1.9c0-0.7-0.2-1.3-0.7-1.8C79.8,9.3,79.2,9,78.5,9z M79.4,12.7c-0.2,0.4-0.6,0.6-1,0.6
		c-0.4,0-0.8-0.2-1-0.6c-0.2-0.4-0.3-0.8-0.3-1.2c0-0.4,0.1-0.8,0.3-1.2c0.2-0.4,0.6-0.6,1-0.6c0.4,0,0.8,0.2,1,0.6
		c0.2,0.3,0.3,0.8,0.3,1.2h0C79.8,12,79.6,12.4,79.4,12.7z"/>
	<path class="st0" d="M83.7,14.2c0.5,0,1-0.2,1.4-0.7l0.1,0.6h1c0-0.4,0-0.8,0-1.2V11c0-1.3-0.6-2-1.9-2c-0.6,0-1.2,0.1-1.7,0.4
		l0.2,0.7c0.4-0.2,0.8-0.4,1.3-0.4c0.7,0,1,0.4,1,1v0.1c-0.7,0-1.5,0.1-2.1,0.5c-0.5,0.3-0.8,0.8-0.8,1.4c0,0.4,0.1,0.7,0.4,1
		C82.8,14,83.2,14.2,83.7,14.2L83.7,14.2z M83.2,12.6c0-0.7,0.6-1,1.8-1v0.8h0c0,0.1,0,0.1,0,0.2c0,0.2-0.2,0.4-0.4,0.6
		c-0.2,0.1-0.4,0.2-0.7,0.2c-0.2,0-0.4-0.1-0.5-0.2C83.2,13,83.2,12.8,83.2,12.6z"/>
	<path class="st0" d="M123.6,22.7c-1.4-0.1-2.7,0.5-3.5,1.6c-0.8,1.1-1.3,2.4-1.2,3.8c-0.1,1.4,0.4,2.7,1.3,3.7c1,1,2.3,1.5,3.7,1.4
		c1.1,0,2.3-0.2,3.4-0.6l-0.3-1.5c-0.9,0.3-1.8,0.5-2.7,0.5c-0.8,0-1.6-0.2-2.2-0.7c-0.7-0.6-1-1.4-1-2.3h6.7c0.1-0.3,0.1-0.7,0.1-1
		c0-1.1-0.3-2.2-0.9-3.2C126.1,23.3,124.9,22.6,123.6,22.7z M121,26.9c0-0.6,0.3-1.2,0.7-1.7c0.4-0.6,1.1-0.9,1.8-0.9
		c0.7,0,1.4,0.3,1.8,0.9c0.3,0.5,0.5,1.1,0.4,1.7H121z"/>
	<path class="st0" d="M112.7,12.4c0,0.5,0.1,0.9,0.4,1.3c0.3,0.3,0.6,0.4,1,0.4c0.3,0,0.6,0,0.9-0.1v-0.8c-0.2,0-0.3,0.1-0.5,0.1
		c-0.4,0-0.6-0.3-0.6-0.9V10h1.2V9.1h-1.2V7.9l-1.1,0.3v0.9H112V10h0.7V12.4z"/>
	<path d="M99.8,13.2c0.2-0.1,0.4-0.3,0.5-0.5c0.2-0.4,0.3-0.8,0.3-1.2l0,0c0-0.4-0.1-0.8-0.3-1.2c-0.2-0.4-0.6-0.6-1-0.6
		c-0.4,0-0.8,0.2-1,0.6c-0.2,0.4-0.3,0.8-0.3,1.2c0,0.4,0.1,0.8,0.3,1.2C98.6,13.3,99.3,13.5,99.8,13.2z"/>
	<path d="M125.6,10.2c-0.2-0.3-0.5-0.5-0.9-0.5c-0.4,0-0.7,0.2-0.9,0.4c-0.2,0.2-0.3,0.5-0.3,0.9l2.3,0
		C125.8,10.8,125.7,10.5,125.6,10.2z"/>
	<path d="M136,0.9H4.9c-2.2,0-4,1.8-4,4v32c0,2.2,1.8,4,4,4H136c2.2,0,4-1.8,4-4v-32C140,2.7,138.2,0.9,136,0.9z M123,9.8
		c0.4-0.5,1.1-0.8,1.7-0.8c0.6,0,1.2,0.3,1.6,0.8c0.3,0.5,0.4,1,0.4,1.5c0,0.2,0,0.3,0,0.5h-3.3c0,0.4,0.2,0.8,0.5,1.1
		c0.3,0.2,0.7,0.4,1.1,0.4c0.5,0,0.9-0.1,1.3-0.2l0.2,0.8c-0.5,0.2-1.1,0.3-1.6,0.3c-0.7,0-1.3-0.2-1.8-0.7
		c-0.5-0.5-0.7-1.1-0.7-1.8C122.4,11,122.6,10.3,123,9.8z M103.3,9.1h1v0.8c0.1-0.2,0.3-0.4,0.6-0.6c0.3-0.2,0.7-0.3,1-0.3
		c0.4,0,0.8,0.2,1.2,0.5c0.4,0.4,0.6,1,0.6,1.6v3l0,0h-1.1v-2.8c0-0.9-0.3-1.3-1-1.3c-0.3,0-0.6,0.1-0.8,0.4
		c-0.2,0.2-0.3,0.5-0.3,0.8v2.9h-1.1V9.1z M97.5,9.8c1-1,2.6-1,3.5,0l0,0c0.4,0.5,0.7,1.1,0.7,1.8c0,0.7-0.2,1.3-0.6,1.9
		c-0.5,0.5-1.1,0.8-1.8,0.8c-0.7,0-1.3-0.2-1.7-0.7c-0.4-0.5-0.7-1.2-0.7-1.8C96.8,10.9,97.1,10.3,97.5,9.8z M73.3,6.9h1.1v7.2h-1.1
		V6.9z M59.6,9.1l0.6,2.3c0.1,0.5,0.2,1.1,0.3,1.6c0.1-0.4,0.2-0.9,0.4-1.6l0.7-2.4h0.9l0.7,2.3c0.2,0.6,0.3,1.1,0.4,1.6
		c0.1-0.5,0.2-1.1,0.3-1.6l0.6-2.3h1.1l-1.5,4.9h-1l-0.6-2.1c-0.2-0.5-0.3-1.1-0.4-1.6c-0.1,0.5-0.2,1.1-0.4,1.6L61,14.1h-1
		l-1.5-4.9H59.6z M45.7,7.3c0.6-0.1,1.3-0.1,1.9-0.1c1-0.1,1.9,0.2,2.7,0.8c0.7,0.6,1.1,1.6,1,2.5c0.1,1-0.3,2.1-1.1,2.8
		c-0.8,0.6-1.9,0.9-2.9,0.9c-0.5,0-1.1,0-1.6-0.1V7.3z M24.2,12.1c0-1.3,0.5-2.6,1.4-3.6c1-1.1,2.4-1.9,3.9-2
		c0.1,1.5-0.4,3.1-1.4,4.3c-0.4,0.6-1,1-1.6,1.3c-0.7,0.4-1.5,0.6-2.3,0.5C24.2,12.4,24.2,12.3,24.2,12.1z M33.2,29.9
		c-1.1,1.6-2.3,3.2-4.1,3.3c-1.8,0.1-2.3-1-4.4-1s-2.7,1-4.4,1.1s-3.1-1.8-4.2-3.4c-2.3-3.4-4-9.4-1.7-13.5c1.1-2,3.2-3.3,5.5-3.4
		c1.7,0,3.4,1.2,4.4,1.2c0.5,0,1.2-0.3,2.1-0.7c0.9-0.3,2-0.7,3-0.6c0.3,0,0.6,0,0.9,0.1c1.6,0.3,3,1.2,4,2.5
		c-1.8,1.1-2.9,3-2.9,5.1v0c0,2.4,1.4,4.5,3.6,5.4C34.7,27.5,34,28.7,33.2,29.9z M53.7,33l-1.3-4.1h-4.5L46.7,33h-2.3L48.9,19h2.8
		L56.1,33H53.7z M56.8,13.4c-0.5,0.5-1.1,0.8-1.8,0.8c-0.7,0-1.3-0.2-1.7-0.7c-0.4-0.5-0.7-1.2-0.6-1.8c0-0.7,0.2-1.4,0.7-1.9
		C53.7,9.3,54.4,9,55.1,9c0.7,0,1.3,0.2,1.7,0.7c0.4,0.5,0.7,1.2,0.6,1.8C57.5,12.2,57.2,12.9,56.8,13.4z M66.2,31.9
		c-0.8,0.9-1.9,1.3-3.1,1.3c-1.1,0.1-2.2-0.5-2.8-1.4V37h-2.3V26.2c0-1.1,0-2.2-0.1-3.3h2l0.1,1.6c0.8-1.1,2-1.8,3.3-1.8
		c0.8,0,1.5,0.2,2.2,0.7c0.3,0.2,0.6,0.4,0.8,0.7c0.8,1.1,1.3,2.4,1.2,3.7C67.7,29.3,67.2,30.8,66.2,31.9z M68.5,10.3
		c-0.2,0.2-0.3,0.5-0.3,0.8v2.9h-1.1V9.1h1v0.8c0.1-0.2,0.3-0.4,0.6-0.6c0.3-0.2,0.7-0.3,1-0.3c0.4,0,0.8,0.2,1.2,0.5
		c0.4,0.4,0.6,1,0.6,1.6v3l0,0h-1.1v-2.8c0-0.9-0.3-1.3-1-1.3C68.9,9.9,68.6,10.1,68.5,10.3z M77.8,31.9c-0.8,0.9-1.9,1.3-3.1,1.3
		c-1.1,0.1-2.2-0.5-2.8-1.4v5.3h-2.3V26.2c0-1.1,0-2.2-0.1-3.3h2l0.1,1.6c0.8-1.1,2-1.8,3.3-1.8c0.8,0,1.5,0.2,2.2,0.7
		c0.3,0.2,0.6,0.4,0.8,0.7c0.8,1.1,1.3,2.4,1.2,3.7C79.2,29.3,78.8,30.8,77.8,31.9z M80.2,13.4c-0.5,0.5-1.1,0.8-1.8,0.8
		c-0.7,0-1.3-0.2-1.7-0.7C76.2,13,76,12.3,76,11.6c0-0.7,0.2-1.4,0.7-1.9C77.2,9.3,77.8,9,78.5,9c0.7,0,1.3,0.2,1.7,0.7
		c0.4,0.5,0.7,1.1,0.7,1.8C80.9,12.2,80.7,12.9,80.2,13.4z M82.1,12.7c0-0.6,0.3-1.1,0.8-1.4c0.6-0.3,1.4-0.5,2.1-0.5v-0.1
		c0-0.6-0.3-1-1-1c-0.5,0-0.9,0.1-1.3,0.4l-0.2-0.7C83,9.1,83.6,9,84.2,9c1.3,0,1.9,0.7,1.9,2v1.9c0,0.4,0,0.8,0,1.2h-1L85,13.5
		c-0.3,0.4-0.8,0.7-1.4,0.7h-0.1c-0.4,0-0.8-0.1-1.1-0.5C82.2,13.5,82.1,13.1,82.1,12.7z M90.9,32c-1.1,0.9-2.4,1.3-3.8,1.2
		c-1.3,0.1-2.5-0.2-3.6-0.9l0.5-1.9c1,0.6,2.1,0.9,3.2,0.9c0.7,0.1,1.4-0.1,2-0.6c0.4-0.4,0.7-0.9,0.7-1.5c0-0.5-0.2-1-0.6-1.4
		c-0.6-0.5-1.2-0.9-1.9-1.1c-2.4-0.9-3.7-2.2-3.7-4c0-1.1,0.5-2.1,1.3-2.8c1-0.8,2.2-1.2,3.4-1.1c1.1,0,2.2,0.2,3.2,0.7L91,21.3
		c-0.8-0.4-1.7-0.7-2.7-0.6c-0.7,0-1.3,0.2-1.8,0.6c-0.4,0.3-0.6,0.8-0.6,1.3c0,0.5,0.2,1,0.6,1.3c0.6,0.5,1.3,0.8,2,1.1
		c1,0.4,1.9,0.9,2.6,1.7c0.6,0.7,0.9,1.5,0.9,2.4l0,0C92.1,30.2,91.7,31.2,90.9,32z M91.3,14.1l0-0.8c-0.3,0.6-0.8,0.9-1.5,0.9h-0.1
		c-0.6,0-1.1-0.2-1.5-0.7c-0.4-0.5-0.6-1.2-0.6-1.8c0-0.7,0.2-1.4,0.6-1.9C88.7,9.3,89.2,9,89.8,9c0.5,0,1.1,0.2,1.4,0.7V6.9h1.1
		v5.9c0,0.5,0,0.9,0.1,1.3H91.3z M99.5,24.6H97v4.9c0,1.2,0.4,1.9,1.3,1.9c0.3,0,0.7,0,1-0.1l0.1,1.7c-0.6,0.2-1.2,0.3-1.7,0.2
		c-0.8,0-1.5-0.2-2.1-0.8c-0.6-0.8-0.8-1.8-0.8-2.7v-5.1h-1.5v-1.7h1.5v-1.8l2.2-0.7v2.5h2.5V24.6z M109.2,31.7
		c-0.9,1-2.3,1.6-3.7,1.5c-1.3,0.1-2.6-0.5-3.5-1.5c-0.9-1-1.4-2.3-1.3-3.7c-0.1-1.4,0.4-2.8,1.4-3.8c0.9-1,2.3-1.6,3.6-1.5
		c1.3-0.1,2.6,0.5,3.6,1.5c0.9,1,1.3,2.3,1.3,3.7C110.6,29.3,110.1,30.6,109.2,31.7z M112,9.1h0.7V8.2l1.1-0.3v1.2h1.2V10h-1.2v2.4
		c0,0.6,0.2,0.9,0.6,0.9c0.2,0,0.3,0,0.5-0.1V14c-0.3,0.1-0.6,0.1-0.9,0.1c-0.4,0-0.7-0.1-1-0.4c-0.3-0.4-0.4-0.9-0.4-1.3V10H112
		V9.1z M117.8,24.9c-0.2,0-0.5-0.1-0.7-0.1c-0.7,0-1.4,0.3-1.8,0.9c-0.4,0.6-0.6,1.3-0.5,2V33h-2.2v-6.9c0-1.2,0-2.2-0.1-3.2h1.9
		l0.1,1.9h0.1c0.2-0.6,0.6-1.2,1.1-1.6c0.5-0.4,1-0.5,1.6-0.5c0.2,0,0.4,0,0.6,0V24.9z M117.7,10.7c0,0.1,0,0.3,0,0.4v3h-1.1V6.9
		h1.1v3c0.3-0.5,0.8-0.8,1.4-0.8h0c0.4,0,0.8,0.1,1.1,0.4c0.4,0.5,0.6,1.1,0.5,1.7v2.9l-0.1,0h-1.1v-2.8c0-0.9-0.3-1.3-1-1.3
		C118.2,9.9,117.8,10.2,117.7,10.7z M127.7,28.5H121c0,0.9,0.3,1.7,1,2.3c0.6,0.5,1.4,0.7,2.2,0.7c0.9,0,1.8-0.2,2.7-0.5l0.3,1.5
		c-1.1,0.4-2.2,0.7-3.4,0.6c-1.4,0.1-2.7-0.4-3.7-1.4c-0.9-1-1.4-2.3-1.3-3.7c0-1.4,0.4-2.7,1.2-3.8c0.9-1.1,2.2-1.7,3.5-1.6
		c1.3-0.1,2.5,0.5,3.2,1.6c0.6,0.9,0.9,2,0.9,3.2C127.8,27.8,127.8,28.1,127.7,28.5z"/>
	<path d="M123.4,24.2c-0.7,0-1.4,0.3-1.8,0.9c-0.4,0.5-0.6,1.1-0.7,1.7h4.6c0-0.6-0.1-1.2-0.4-1.7C124.8,24.5,124.2,24.2,123.4,24.2
		z"/>
	<path d="M79.4,10.4c-0.2-0.4-0.6-0.6-1-0.6c-0.4,0-0.8,0.2-1,0.6c-0.2,0.4-0.3,0.8-0.3,1.2c0,0.4,0.1,0.8,0.3,1.2
		c0.2,0.4,0.6,0.6,1,0.6c0.4,0,0.8-0.2,1-0.6c0.2-0.4,0.3-0.8,0.3-1.2h0C79.7,11.1,79.6,10.7,79.4,10.4z"/>
	<path d="M61.4,24.9c0,0-0.1,0.1-0.1,0.1c-0.4,0.4-0.8,0.9-0.9,1.4c-0.1,0.2-0.1,0.5-0.1,0.7v1.8c0,0.7,0.2,1.3,0.7,1.8
		c0.4,0.5,1.1,0.8,1.7,0.8c0.8,0,1.5-0.3,2-1c0.5-0.8,0.7-1.7,0.7-2.6c0-0.9-0.2-1.7-0.7-2.4C64,24.4,62.5,24.1,61.4,24.9z"/>
	<path d="M54.5,9.9c-0.2,0.1-0.4,0.3-0.5,0.5c-0.2,0.4-0.3,0.8-0.3,1.2c0,0.4,0.1,0.8,0.3,1.2c0.2,0.4,0.6,0.6,1,0.6
		c0.4,0,0.8-0.2,1-0.6c0.2-0.4,0.3-0.8,0.3-1.2c0-0.4-0.1-0.8-0.3-1.2C55.7,9.8,55,9.6,54.5,9.9z"/>
	<path d="M49.5,12.5c0.5-0.5,0.7-1.3,0.7-2v0c0-0.7-0.2-1.3-0.6-1.8C49,8.2,48.3,8,47.7,8c-0.3,0-0.6,0-0.9,0.1v5.1h0.7
		C48.2,13.2,48.9,13,49.5,12.5z"/>
	<path d="M74.3,24.5c-0.6,0-1.1,0.2-1.5,0.5c-0.4,0.4-0.8,0.9-0.9,1.4c-0.1,0.2-0.1,0.5-0.1,0.7v1.8c0,0.7,0.2,1.3,0.7,1.8
		c0.4,0.5,1.1,0.8,1.7,0.8c0.8,0,1.6-0.3,2-1c0.5-0.8,0.7-1.7,0.7-2.6c0-0.9-0.2-1.7-0.7-2.4C75.8,24.8,75,24.4,74.3,24.5z"/>
	<path d="M84.6,13.1c0.2-0.1,0.3-0.4,0.4-0.6c0-0.1,0-0.1,0-0.2h0v-0.8c-1.2,0-1.8,0.3-1.8,1c0,0.2,0.1,0.4,0.2,0.6
		c0.2,0.1,0.3,0.2,0.5,0.2C84.2,13.4,84.4,13.3,84.6,13.1z"/>
	<path d="M90,9.9c-0.4,0-0.8,0.2-1,0.5c-0.2,0.4-0.4,0.8-0.3,1.2c0,0.4,0.1,0.8,0.3,1.2c0.2,0.3,0.6,0.5,1,0.5
		c0.3,0,0.6-0.1,0.8-0.4c0.2-0.2,0.3-0.6,0.3-0.9h0v-0.8c0-0.1,0-0.2,0-0.3c-0.1-0.3-0.2-0.5-0.4-0.7C90.6,10,90.3,9.8,90,9.9z"/>
	<path d="M107.7,25.6c-0.4-0.8-1.2-1.2-2-1.2c-0.8,0-1.6,0.5-2,1.2c-0.4,0.7-0.6,1.6-0.6,2.4c0,0.8,0.2,1.7,0.6,2.4
		c0.4,0.8,1.2,1.2,2,1.2c0.8,0,1.6-0.5,2-1.2c0.4-0.7,0.6-1.6,0.6-2.4h0C108.3,27.1,108.1,26.3,107.7,25.6z"/>
	<path d="M50.2,20.9c-0.1,0.6-0.3,1.5-0.7,2.6l-1.2,3.6H52l-1.2-3.6C50.8,23.2,50.5,22.3,50.2,20.9z"/>
</g>
</svg>
