<svg xmlns="http://www.w3.org/2000/svg" viewBox="0 0 207 149"><defs><style>.cls-1{fill:#fff;}.cls-2{fill:#474747;}.cls-3{fill:#454545;}.cls-4{fill:#464646;}.cls-5{fill:#494949;}.cls-6{fill:#444;}.cls-7{fill:#4a4a4a;}.cls-8{fill:#019bfe;}</style></defs><g id="Layer_2" data-name="Layer 2"><g id="Layer_1-2" data-name="Layer 1"><g id="Page-1"><g id="press-page-news-furniture-today"><g id="Mask"><rect id="path-1" class="cls-1" width="207" height="149" rx="4"/></g><g id="img-340X102-Clipped"><g id="path-1-2" data-name="path-1"><rect id="path-1-3" data-name="path-1" class="cls-1" width="207" height="149" rx="4"/></g></g></g></g><path class="cls-2" d="M117.7,76.51h3.21l2.27,8.81c.75-3.16,1.41-5.92,2.09-8.76h3.58c-1.14,4.48-2.26,8.86-3.4,13.32h-4l-2-7.86h-.29c-.68,2.62-1.37,5.25-2.06,7.91h-4l-3.36-13.41h3.64l1.85,8.13.33.09C116.28,82,117,79.27,117.7,76.51Z"/><path class="cls-3" d="M71.14,76.5h3.28l5.21,7.6V76.57h3.5v13.3H79.71l-5-7.16-.3.12v7H71.14Z"/><path class="cls-3" d="M146,76.46c2.3,0,4.45-.07,6.59,0a4.46,4.46,0,0,1,4.3,2.82,4.55,4.55,0,0,1-1.46,5.23,6.32,6.32,0,0,1-.53.38l2.65,5h-4l-2.28-4.32-1.65-.1v4.41H146Zm6.56,3.13h-2.88v3c1.3,0,2.59.47,3.46-.79C153.65,81,153.33,80.32,152.55,79.59Z"/><path class="cls-3" d="M134.89,73A7,7,0,0,1,135,58.93,7,7,0,1,1,134.89,73Zm3.51-7a13.92,13.92,0,0,0-.71-2.21A2.87,2.87,0,0,0,135,62.09a2.84,2.84,0,0,0-2.69,1.6,4.55,4.55,0,0,0,.13,4.78,3,3,0,0,0,5.25-.26A12.46,12.46,0,0,0,138.4,66Z"/><path class="cls-4" d="M143.79,83.27a7.09,7.09,0,0,1-14.17,0,7.09,7.09,0,1,1,14.17,0Zm-3.78.11a12.89,12.89,0,0,0-.36-1.83,3.22,3.22,0,0,0-3-2.31,3.26,3.26,0,0,0-2.86,2.29,4.76,4.76,0,0,0,.26,3.94,3,3,0,0,0,2.9,1.62,2.73,2.73,0,0,0,2.56-1.78A14.49,14.49,0,0,0,140,83.38Z"/><path class="cls-3" d="M144.32,59.26c2.11,0,4.13-.1,6.15,0a6.35,6.35,0,0,1,5.93,6.54c0,3.74-2.3,6.53-5.86,6.78-2,.15-4,0-6.22,0ZM148,69.73c1.81.16,3.33,0,4.17-1.64a4.47,4.47,0,0,0-.28-4.77C151,62,149.56,62,148,62.21Z"/><path class="cls-5" d="M159.61,76.5h3.6v5.21l.36.15,4.08-5.35h4.29l-4.88,6.15,4.82,7.24h-4.34l-4-5.92-.29.09v5.82h-3.68Z"/><path class="cls-6" d="M79.36,59.33h3.75c0,3.06.13,6,0,9a4.69,4.69,0,0,1-3.47,4.27,7.45,7.45,0,0,1-5.53-.16,4.7,4.7,0,0,1-3-4.38c-.07-2.85,0-5.69,0-8.67h3.71v6.73a11.34,11.34,0,0,0,0,1.75,2.3,2.3,0,0,0,4.57-.15c.09-1.49,0-3,0-4.47Z"/><path class="cls-7" d="M86.19,89.89V76.56h9.24v2.88H90v2.14h4.86v3H90l-.13,2.33h6v3Z"/><path class="cls-6" d="M101.25,70.31l-.86,2.27H96.71c1.64-4.48,3.23-8.8,4.84-13.22H106l4.86,13.15h-3.77l-.87-2.2ZM104,63.22l-.4,0-1.36,4.07h3.12Z"/><path class="cls-6" d="M161.81,59.32h4.46c1.62,4.4,3.23,8.75,4.9,13.25h-3.73l-1-2.28h-4.95l-1,2.3h-3.62C158.59,68.08,160.2,63.71,161.81,59.32Zm3.77,8L164,62.74c-.62,1.8-1.07,3.14-1.58,4.62Z"/><path class="cls-4" d="M84.69,70.84l1.71-2.23c1.9.85,3.78,2.39,5.89.55-.41-1.25-1.37-1.38-2.22-1.66s-1.65-.43-2.42-.76a3.6,3.6,0,0,1-2.46-3.61,3.83,3.83,0,0,1,2.67-3.71C90.8,58.33,93.47,59,96.07,61l-1.84,2.35c-1.7-1-3.28-2.15-5.17-.93-.16,1.35.79,1.54,1.55,1.83s1.77.45,2.61.8c2,.83,2.75,2,2.68,3.86a3.89,3.89,0,0,1-3,3.68A8.51,8.51,0,0,1,84.69,70.84Z"/><path class="cls-7" d="M108.89,76.57v2.86H105V89.89h-3.78V79.57h-4v-3Z"/><path class="cls-6" d="M169.82,59.33H174l2.46,5.07L179,59.31h4.18c-1.08,1.95-2,3.79-3.1,5.53a9.19,9.19,0,0,0-1.71,6.39,10.74,10.74,0,0,1,0,1.29h-3.6a7.46,7.46,0,0,1-.12-1.43,9,9,0,0,0-1.59-6C171.91,63.26,171,61.36,169.82,59.33Z"/><path class="cls-3" d="M123.22,62.15V72.56H119.5V62.28h-3.93V59.37h11.54v2.78Z"/><circle class="cls-8" cx="44.69" cy="74.9" r="20.66"/></g></g></svg>