<svg width="217" height="128" viewBox="0 0 217 128" fill="none" xmlns="http://www.w3.org/2000/svg">
<path fill-rule="evenodd" clip-rule="evenodd" d="M47.2188 64.6809C47.2188 66.5609 47.7668 68.0809 48.8668 69.2436C49.9655 70.4049 51.5065 70.9862 53.495 70.9862C55.4849 70.9862 57.0271 70.4049 58.1259 69.2436C59.2273 68.0809 59.7739 66.5609 59.7739 64.6809C59.7739 62.8009 59.2273 61.2796 58.1259 60.1169C57.0271 58.9556 55.4849 58.3756 53.495 58.3756C51.5065 58.3756 49.9655 58.9556 48.8668 60.1169C47.7668 61.2796 47.2188 62.8009 47.2188 64.6809M41.1109 52.2224H46.1053C46.7211 52.2224 47.219 52.7104 47.219 53.3131V55.5037H47.3234C47.6381 55.0584 48.0464 54.6064 48.5523 54.1451C49.0583 53.6837 49.651 53.2651 50.3306 52.8877C51.0115 52.5144 51.7522 52.2051 52.5552 51.9664C53.3555 51.7277 54.2114 51.6064 55.1175 51.6064C57.0016 51.6064 58.7107 51.9251 60.2462 52.5544C61.7803 53.1904 63.0947 54.0771 64.1947 55.2211C65.2935 56.3677 66.1412 57.7264 66.734 59.2984C67.3254 60.8717 67.6225 62.5971 67.6225 64.4757C67.6225 66.2171 67.3525 67.885 66.8099 69.4744C66.2714 71.0637 65.5023 72.4744 64.5094 73.7037C63.5152 74.9357 62.3039 75.9184 60.8742 76.6517C59.4431 77.385 57.8209 77.7544 56.0073 77.7544C54.3674 77.7544 52.8427 77.5051 51.4307 77.0117C50.0173 76.5157 48.8575 75.6704 47.9501 74.4744H47.847V84.5237C47.847 85.1277 47.3465 85.6144 46.732 85.6144H41.1109C40.4965 85.6144 40 85.1277 40 84.5237V53.3131C40 52.7104 40.4965 52.2224 41.1109 52.2224" fill="#442669"/>
<path fill-rule="evenodd" clip-rule="evenodd" d="M96.0275 52.224H101.646C102.263 52.224 102.762 52.7107 102.762 53.3107V56.2227H102.864C103.702 54.684 104.698 53.5294 105.847 52.7614C106.998 51.9907 108.446 51.608 110.189 51.608C110.643 51.608 111.096 51.624 111.549 51.66L111.778 51.6774C112.359 51.72 112.807 52.1947 112.807 52.7654V57.4827C112.807 58.156 112.191 58.668 111.514 58.5614L111.157 58.504C110.616 58.4187 110.05 58.3747 109.459 58.3747C107.959 58.3747 106.772 58.5814 105.901 58.9907C105.026 59.4014 104.359 59.9734 103.885 60.708C103.416 61.444 103.109 62.3227 102.971 63.348C102.831 64.3747 102.762 65.5014 102.762 66.7307V76.0494C102.762 76.6507 102.263 77.1414 101.646 77.1414H96.0275C95.413 77.1414 94.9138 76.6507 94.9138 76.0494V53.3107C94.9138 52.7107 95.413 52.224 96.0275 52.224" fill="#442669"/>
<path fill-rule="evenodd" clip-rule="evenodd" d="M121.542 64.6809C121.542 66.5609 122.092 68.0809 123.193 69.2436C124.286 70.4049 125.831 70.9862 127.82 70.9862C129.811 70.9862 131.351 70.4049 132.449 69.2436C133.549 68.0809 134.1 66.5609 134.1 64.6809C134.1 62.8009 133.549 61.2796 132.449 60.1169C131.351 58.9556 129.811 58.3756 127.82 58.3756C125.831 58.3756 124.286 58.9556 123.193 60.1169C122.092 61.2796 121.542 62.8009 121.542 64.6809M115.437 52.2224H120.43C121.045 52.2224 121.542 52.7104 121.542 53.3131V55.5037H121.647C121.963 55.0584 122.371 54.6064 122.876 54.1451C123.38 53.6837 123.975 53.2651 124.655 52.8877C125.338 52.5144 126.077 52.2051 126.881 51.9664C127.68 51.7277 128.535 51.6064 129.442 51.6064C131.324 51.6064 133.036 51.9251 134.57 52.5544C136.104 53.1904 137.42 54.0771 138.52 55.2211C139.618 56.3677 140.463 57.7264 141.057 59.2984C141.648 60.8717 141.947 62.5971 141.947 64.4757C141.947 66.2171 141.677 67.885 141.135 69.4744C140.594 71.0637 139.826 72.4744 138.833 73.7037C137.841 74.9357 136.626 75.9184 135.195 76.6517C133.768 77.385 132.144 77.7544 130.331 77.7544C128.692 77.7544 127.166 77.5051 125.753 77.0117C124.341 76.5157 123.182 75.6704 122.275 74.4744H122.173V84.5237C122.173 85.1277 121.674 85.6144 121.057 85.6144H115.437C114.821 85.6144 114.323 85.1277 114.323 84.5237V53.3131C114.323 52.7104 114.821 52.2224 115.437 52.2224" fill="#442669"/>
<path fill-rule="evenodd" clip-rule="evenodd" d="M168.972 61.8616C169.006 60.5629 168.57 59.4509 167.663 58.5296C166.755 57.6056 165.59 57.1456 164.158 57.1456C163.287 57.1456 162.518 57.2816 161.859 57.5562C161.195 57.8309 160.628 58.1789 160.156 58.6056C159.683 59.0336 159.321 59.5296 159.058 60.0936C158.796 60.6576 158.649 61.2469 158.613 61.8616H168.972ZM174.83 72.2694C175.271 72.5828 175.328 73.2014 174.959 73.5934C173.821 74.8028 172.452 75.7614 170.857 76.4734C168.936 77.3281 166.949 77.7548 164.89 77.7548C162.94 77.7548 161.096 77.4481 159.375 76.8321C157.644 76.2188 156.146 75.3361 154.871 74.1921C153.598 73.0481 152.598 71.6708 151.864 70.0628C151.133 68.4601 150.764 66.6641 150.764 64.6814C150.764 62.7001 151.133 60.9068 151.864 59.2988C152.598 57.6921 153.598 56.3174 154.871 55.1708C156.146 54.0268 157.644 53.1454 159.375 52.5321C161.096 51.9148 162.94 51.6081 164.89 51.6081C166.704 51.6081 168.353 51.9148 169.838 52.5321C171.317 53.1454 172.573 54.0268 173.602 55.1708C174.632 56.3174 175.424 57.6921 175.983 59.2988C176.539 60.9068 176.819 62.7001 176.819 64.6814V65.9681C176.819 66.5894 176.304 67.0908 175.671 67.0908H158.612C158.929 68.5614 159.608 69.7308 160.653 70.6041C161.701 71.4748 162.991 71.9121 164.525 71.9121C165.815 71.9121 166.908 71.6281 167.794 71.0641C168.424 70.6681 168.991 70.1894 169.505 69.6321C169.879 69.2254 170.504 69.1601 170.956 69.4854L174.83 72.2694Z" fill="#442669"/>
<path fill-rule="evenodd" clip-rule="evenodd" d="M85.7137 52.2239C84.8415 52.2239 84.1362 52.9159 84.1362 53.7693V64.6293C84.1362 65.4506 84.0833 66.2386 83.9802 66.9893C83.8758 67.7439 83.656 68.4173 83.3264 69.0133C82.9927 69.6106 82.5139 70.0893 81.8872 70.4493C81.2606 70.8079 80.4386 70.9879 79.428 70.9879C78.4161 70.9879 77.6402 70.7826 77.1004 70.3706C76.5578 69.9613 76.159 69.4333 75.8958 68.7826C75.6341 68.1346 75.4767 67.4239 75.4265 66.6546C75.3736 65.8866 75.3478 65.1426 75.3478 64.4253V53.7693C75.3478 52.9159 74.6411 52.2239 73.769 52.2239H68.251C67.8359 52.2239 67.4995 52.5533 67.4995 52.9613V53.6639C67.4995 53.9959 67.6135 54.3146 67.8128 54.5826C68.6308 55.6893 69.3022 56.9173 69.8109 58.2599C70.5271 60.1613 70.8892 62.2506 70.8892 64.4746C70.8892 66.5319 70.5637 68.5333 69.9207 70.4213C69.6535 71.2039 69.3334 71.9573 68.9712 72.6733C68.7298 73.1439 68.7759 73.7079 69.0608 74.1546L69.1991 74.3719C69.8801 75.4319 70.8391 76.2613 72.0761 76.8599C73.3146 77.4559 74.9287 77.7546 76.9172 77.7546C77.8573 77.7546 78.7294 77.6359 79.5311 77.3946C80.3341 77.1573 81.0503 76.8493 81.677 76.4733C82.305 76.0973 82.8381 75.6706 83.2708 75.1946C83.7076 74.7133 84.067 74.2346 84.3464 73.7573H84.4509V75.5933C84.4509 76.4479 85.1589 77.1413 86.0271 77.1413H90.407C91.2778 77.1413 91.9832 76.4479 91.9832 75.5933V53.7693C91.9832 52.9159 91.2778 52.2239 90.407 52.2239H85.7137Z" fill="#442669"/>
<mask id="mask0_724_15995" style="mask-type:alpha" maskUnits="userSpaceOnUse" x="141" y="42" width="9" height="37">
<path fill-rule="evenodd" clip-rule="evenodd" d="M141.248 42H149.029V78.1892H141.248V42Z" fill="white"/>
</mask>
<g mask="url(#mask0_724_15995)">
<path fill-rule="evenodd" clip-rule="evenodd" d="M141.248 43.0907V52.528C141.248 53.504 141.602 54.432 142.192 55.2133C142.972 56.2387 143.604 57.3907 144.08 58.652C144.73 60.376 145.06 62.2787 145.06 64.3107C145.06 66.192 144.763 68.0173 144.177 69.74C143.714 71.0987 143.093 72.348 142.325 73.4747C142.108 73.7933 141.248 74.98 141.248 76.4773V77.096C141.248 77.7 141.745 78.1893 142.362 78.1893H147.915C148.532 78.1893 149.029 77.7 149.029 77.096V43.0907C149.029 42.488 148.532 42 147.915 42H142.362C141.745 42 141.248 42.488 141.248 43.0907" fill="#442669"/>
</g>
</svg>
