<svg width="95" height="46" viewBox="0 0 95 46" fill="none" xmlns="http://www.w3.org/2000/svg">
<path fill-rule="evenodd" clip-rule="evenodd" d="M17.8201 24.9815V0H11.0741V3.66135H13.9697V13.3963C13.6051 13.0944 13.2089 12.8327 12.788 12.6157C12.2276 12.3239 11.6406 12.086 11.0349 11.9053C10.3509 11.6935 9.63815 11.5882 8.92192 11.593C5.34047 11.555 2.08973 13.6758 0.688971 16.964C0.229466 18.0153 -0.00509443 19.1506 0.000284201 20.2975C-0.0065898 21.4596 0.227897 22.6105 0.688971 23.6778C1.57488 25.795 3.26218 27.4781 5.38457 28.3618C6.49894 28.8199 7.69318 29.0534 8.89844 29.0488C9.67748 29.0561 10.454 28.9589 11.2071 28.76C11.8253 28.6027 12.4258 28.3829 12.9993 28.1042C13.4053 27.9053 13.7863 27.659 14.134 27.3704C14.2592 27.2611 14.3453 27.1752 14.4158 27.1049V28.6663H21.1305V24.9815H17.8201ZM12.5688 23.8417C11.6048 24.8138 10.2761 25.3378 8.90626 25.286C7.53882 25.3375 6.21261 24.8134 5.25152 23.8417C4.32258 22.8978 3.81469 21.6199 3.84285 20.2975C3.8057 18.9772 4.31189 17.6993 5.2437 16.761C6.22243 15.8165 7.54546 15.3117 8.90626 15.3636C10.2674 15.3099 11.5911 15.8149 12.5688 16.761C13.5006 17.6993 14.0068 18.9772 13.9697 20.2975C14.0057 21.6291 13.5005 22.9186 12.5688 23.873V23.8417ZM55.0953 24.4819H52.2623V0H45.3676V3.59109H48.3336V24.4819H44.9215V28.0808H55.0953V24.4819ZM85.3975 11.9521V15.3168H88.0349L83.6288 24.6849L79.1758 15.3558H81.3906V11.9521H72.1011V15.3168H75.2707L81.6958 28.1042L77.9785 35.4425H1.99591L2.05069 39.0336H6.82455C6.27881 39.7998 5.9861 40.7167 5.98717 41.6567C5.92129 43.9807 7.75074 45.9208 10.0802 45.9972C12.4084 45.9208 14.2356 43.9794 14.1653 41.6567C14.1601 40.7141 13.859 39.7968 13.3045 39.0336H68.7125C68.1667 39.7998 67.874 40.7167 67.8751 41.6567C67.7809 43.1756 68.5398 44.6212 69.845 45.4091C71.1502 46.197 72.786 46.197 74.0912 45.4091C75.3964 44.6212 76.1553 43.1756 76.0611 41.6567C76.0622 40.7167 75.7695 39.7998 75.2237 39.0336H80.1854L91.9244 15.3168H95V11.9521H85.3975ZM66.2395 24.4819H69.0725V28.0808H58.8909V24.4819H62.3108V3.59109H59.3448V0H66.2395V24.4819ZM29.1599 28.3931C28.1392 27.9605 27.2138 27.3318 26.4365 26.5429C25.6668 25.7581 25.051 24.8367 24.6209 23.8261C23.2843 20.6231 23.9995 16.9333 26.4365 14.4581C27.2186 13.6788 28.1431 13.0561 29.1599 12.6235C30.2213 12.1731 31.3639 11.9446 32.5173 11.9521C33.6781 11.9462 34.8281 12.1746 35.8981 12.6235C36.9191 13.0569 37.8486 13.6794 38.6372 14.4581C39.4138 15.2388 40.0329 16.1611 40.4607 17.1748C41.3374 19.3057 41.3374 21.6952 40.4607 23.8261C40.0267 24.8365 39.4084 25.7577 38.6372 26.5429C37.0247 28.1777 34.8164 29.0904 32.5173 29.0722C31.363 29.0811 30.2196 28.8498 29.1599 28.3931ZM28.0408 18.6346C27.7881 19.2351 27.6603 19.8805 27.6652 20.5317C27.6684 21.1669 27.796 21.7954 28.0408 22.3819C28.2727 22.9627 28.6156 23.4929 29.0504 23.9432C29.4861 24.3819 30.0013 24.7342 30.5686 24.9815C31.1479 25.2394 31.7735 25.3774 32.4077 25.3875C33.0479 25.3929 33.6823 25.2653 34.2703 25.0127C34.853 24.7683 35.3841 24.416 35.8355 23.9744C36.2816 23.5286 36.6329 22.9975 36.8685 22.4131C37.1204 21.8097 37.2481 21.1619 37.2442 20.5083C37.249 19.8571 37.1212 19.2117 36.8685 18.6112C36.3889 17.4335 35.464 16.4913 34.2938 15.9882C33.7057 15.7356 33.0714 15.608 32.4312 15.6134C31.789 15.6203 31.1551 15.7584 30.5686 16.0194C29.9987 16.2649 29.4848 16.6235 29.0582 17.0733C28.6246 17.526 28.2795 18.0555 28.0408 18.6346Z" fill="#F94550"/>
</svg>
