<svg xmlns="http://www.w3.org/2000/svg" xmlns:xlink="http://www.w3.org/1999/xlink" viewBox="0 0 140.87 41.74"><defs><style>.cls-1{fill:none;}.cls-2{clip-path:url(#clip-path);}.cls-3{fill:#0a0b09;}.cls-12,.cls-4,.cls-5{fill:#fff;}.cls-4{stroke:#fff;stroke-miterlimit:10;stroke-width:0.2px;}.cls-6{fill:url(#linear-gradient);}.cls-7{fill:url(#linear-gradient-2);}.cls-8{fill:url(#linear-gradient-3);}.cls-9{fill:url(#linear-gradient-4);}.cls-10{opacity:0.2;}.cls-10,.cls-11,.cls-12{isolation:isolate;}.cls-11{opacity:0.12;}.cls-12{opacity:0.25;}</style><clipPath id="clip-path" transform="translate(0.87 0.87)"><path class="cls-1" d="M139.13,36a4,4,0,0,1-4,4H4a4,4,0,0,1-4-4H0V4A4,4,0,0,1,4,0H135.13a4,4,0,0,1,4,4V36h0"/></clipPath><linearGradient id="linear-gradient" x1="22.15" y1="-742.39" x2="5.31" y2="-759.24" gradientTransform="matrix(1, 0, 0, -1, 1.09, -733.64)" gradientUnits="userSpaceOnUse"><stop offset="0" stop-color="#00a0ff"/><stop offset="0.01" stop-color="#00a1ff"/><stop offset="0.26" stop-color="#00beff"/><stop offset="0.51" stop-color="#00d2ff"/><stop offset="0.76" stop-color="#00dfff"/><stop offset="1" stop-color="#00e3ff"/></linearGradient><linearGradient id="linear-gradient-2" x1="34.23" y1="-753.72" x2="9.94" y2="-753.72" gradientTransform="matrix(1, 0, 0, -1, 1.09, -733.64)" gradientUnits="userSpaceOnUse"><stop offset="0" stop-color="#ffe000"/><stop offset="0.41" stop-color="#ffbd00"/><stop offset="0.78" stop-color="orange"/><stop offset="1" stop-color="#ff9c00"/></linearGradient><linearGradient id="linear-gradient-3" x1="25.19" y1="-756.02" x2="2.34" y2="-778.87" gradientTransform="matrix(1, 0, 0, -1, 1.09, -733.64)" gradientUnits="userSpaceOnUse"><stop offset="0" stop-color="#ff3a44"/><stop offset="1" stop-color="#c31162"/></linearGradient><linearGradient id="linear-gradient-4" x1="7.59" y1="-733.81" x2="17.79" y2="-744.02" gradientTransform="matrix(1, 0, 0, -1, 1.09, -733.64)" gradientUnits="userSpaceOnUse"><stop offset="0" stop-color="#32a071"/><stop offset="0.07" stop-color="#2da771"/><stop offset="0.48" stop-color="#15cf74"/><stop offset="0.8" stop-color="#06e775"/><stop offset="1" stop-color="#00f076"/></linearGradient></defs><g id="Layer_2" data-name="Layer 2"><g id="Layer_1-2" data-name="Layer 1"><g id="Layer_2-2" data-name="Layer 2"><g id="Layer_1-2-2" data-name="Layer 1-2"><g id="Layer_2-2-2" data-name="Layer 2-2"><g id="artwork"><g class="cls-2"><rect class="cls-3" width="140.87" height="41.74"/></g><path class="cls-4" d="M49,10.28a2.75,2.75,0,0,1-.74,2,2.93,2.93,0,0,1-2.22.88,3.1,3.1,0,0,1-3.13-3.07V10A3.1,3.1,0,0,1,45.93,6.9H46a2.92,2.92,0,0,1,1.24.24,2.77,2.77,0,0,1,.94.68l-.52.52A2.07,2.07,0,0,0,46,7.63a2.33,2.33,0,0,0-2.35,2.31h0a.17.17,0,0,0,0,.1,2.39,2.39,0,0,0,2.45,2.35,2.47,2.47,0,0,0,1.55-.61,1.85,1.85,0,0,0,.5-1.22H46V9.82h2.92A2.38,2.38,0,0,1,49,10.28Z" transform="translate(0.87 0.87)"/><path class="cls-4" d="M53.6,7.77H50.84V9.68h2.48v.72H50.84v1.91H53.6V13H50.07V7H53.6Z" transform="translate(0.87 0.87)"/><path class="cls-4" d="M56.85,13h-.8V7.77H54.4V7h4.14v.75H56.86Z" transform="translate(0.87 0.87)"/><path class="cls-4" d="M61.53,13V7h.8v6Z" transform="translate(0.87 0.87)"/><path class="cls-4" d="M65.74,13h-.8V7.77H63.28V7h4.14v.75H65.74Z" transform="translate(0.87 0.87)"/><path class="cls-4" d="M75.26,12.27a3.13,3.13,0,0,1-4.42,0A3.05,3.05,0,0,1,70,10a3.05,3.05,0,0,1,.89-2.23,3.1,3.1,0,0,1,4.39,0h0A3,3,0,0,1,76.13,10,3.08,3.08,0,0,1,75.26,12.27Zm-3.85-.5a2.32,2.32,0,0,0,3.27,0h0A2.37,2.37,0,0,0,75.35,10a2.37,2.37,0,0,0-.67-1.73,2.32,2.32,0,0,0-3.27,0h0A2.37,2.37,0,0,0,70.74,10,2.37,2.37,0,0,0,71.41,11.77Z" transform="translate(0.87 0.87)"/><path class="cls-4" d="M77.22,13V7h.94l2.93,4.69h0V7h.8v6h-.8L78,8.14h0V13Z" transform="translate(0.87 0.87)"/><path class="cls-5" d="M69.76,21.83A4.22,4.22,0,0,0,65.47,26v.14a4.29,4.29,0,1,0,8.57.37,2.28,2.28,0,0,0,0-.37,4.21,4.21,0,0,0-4.14-4.27Zm0,6.87a2.59,2.59,0,1,1,2.39-2.78,1.09,1.09,0,0,1,0,.18,2.48,2.48,0,0,1-2.36,2.59Zm-9.35-6.87A4.22,4.22,0,0,0,56.12,26v.12a4.29,4.29,0,0,0,8.58,0,4.22,4.22,0,0,0-4.16-4.27Zm0,6.87a2.59,2.59,0,1,1,2.39-2.78,1.09,1.09,0,0,1,0,.18,2.47,2.47,0,0,1-2.35,2.59ZM49.29,23.14V25H53.6a3.8,3.8,0,0,1-1,2.28,4.47,4.47,0,0,1-3.35,1.32,4.8,4.8,0,0,1,0-9.6h0a4.63,4.63,0,0,1,3.27,1.29L53.82,19a6.35,6.35,0,0,0-4.55-1.84,6.64,6.64,0,0,0,0,13.27,6.1,6.1,0,0,0,4.63-1.86,6,6,0,0,0,1.6-4.24,7.08,7.08,0,0,0-.1-1.13Zm45.48,1.41a4,4,0,0,0-3.65-2.72,4.06,4.06,0,0,0-4,4.12v.15a4.19,4.19,0,0,0,4.09,4.28h.15a4.27,4.27,0,0,0,3.56-1.9l-1.46-1a2.44,2.44,0,0,1-2.1,1.19,2.19,2.19,0,0,1-2.07-1.3L95,25ZM88.94,26a2.35,2.35,0,0,1,2.19-2.5h.07a1.66,1.66,0,0,1,1.6.9ZM84.3,30.11h1.88V17.6H84.3Zm-3.07-7.33h-.06a3,3,0,0,0-2.25-1,4.28,4.28,0,0,0,0,8.55,2.93,2.93,0,0,0,2.25-1h.06V30A2.2,2.2,0,0,1,79,32.52,2.4,2.4,0,0,1,76.8,31l-1.6.68A4.07,4.07,0,0,0,79,34.21c2.2,0,4.06-1.3,4.06-4.45V22.09H81.26ZM79.08,28.7a2.45,2.45,0,0,1-2.4-2.5v-.08A2.49,2.49,0,0,1,79,23.51h0A2.41,2.41,0,0,1,81.37,26s0,.07,0,.1a2.4,2.4,0,0,1-2.21,2.57Zm24.48-11.1h-4.5V30.11h1.88V25.36h2.61a3.9,3.9,0,1,0,.5-7.79,4.17,4.17,0,0,0-.5,0Zm0,6h-2.67V19.3h2.67a2.16,2.16,0,0,1,0,4.31Zm11.59-1.83a3.48,3.48,0,0,0-3.34,1.91l1.66.69a1.77,1.77,0,0,1,1.68-.92,1.82,1.82,0,0,1,2,1.6v.13a4.2,4.2,0,0,0-2-.43c-1.79,0-3.62,1-3.62,2.82a2.9,2.9,0,0,0,3,2.77h.1a2.66,2.66,0,0,0,2.4-1.22h.06v1H119v-4.8c0-2.23-1.67-3.47-3.81-3.47ZM115,28.7c-.62,0-1.48-.31-1.48-1.07,0-1,1.07-1.34,2-1.34a3.38,3.38,0,0,1,1.71.41,2.28,2.28,0,0,1-2.24,2Zm10.62-6.61-2.15,5.44h-.07l-2.23-5.44h-2l3.34,7.61-1.91,4.22h2l5.16-11.82Zm-16.87,8h1.87V17.6h-1.88Z" transform="translate(0.87 0.87)"/><path class="cls-6" d="M11.82,7.57A2.05,2.05,0,0,0,11.36,9V31.2a2.09,2.09,0,0,0,.46,1.42l.08.07L24.34,20.22v-.29L11.9,7.5Z" transform="translate(0.87 0.87)"/><path class="cls-7" d="M28.49,24.38l-4.15-4.16v-.29l4.16-4.15.08.06,4.92,2.78c1.4.8,1.4,2.1,0,2.9L28.58,24.3Z" transform="translate(0.87 0.87)"/><path class="cls-8" d="M28.58,24.32l-4.24-4.24L11.82,32.59a1.6,1.6,0,0,0,2.09.06l14.67-8.33" transform="translate(0.87 0.87)"/><path class="cls-9" d="M28.58,15.84,13.91,7.5a1.61,1.61,0,0,0-2.09.07L24.34,20.08Z" transform="translate(0.87 0.87)"/><path class="cls-10" d="M28.5,24.22,13.91,32.5a1.67,1.67,0,0,1-2,0h0l-.08.08h0l.08.08h0a1.7,1.7,0,0,0,2,0l14.67-8.34Z" transform="translate(0.87 0.87)"/><path class="cls-11" d="M11.82,32.44A2.05,2.05,0,0,1,11.36,31v.17a2.09,2.09,0,0,0,.46,1.42l.08-.08Z" transform="translate(0.87 0.87)"/><path class="cls-11" d="M33.5,21.38l-5,2.84.08.1,4.92-2.78a1.78,1.78,0,0,0,1-1.45h0A1.88,1.88,0,0,1,33.5,21.38Z" transform="translate(0.87 0.87)"/><path class="cls-12" d="M13.91,7.66,33.49,18.78a1.86,1.86,0,0,1,1,1.31h0a1.75,1.75,0,0,0-1-1.45L13.91,7.5c-1.4-.8-2.55-.13-2.55,1.48v.14C11.37,7.52,12.52,6.86,13.91,7.66Z" transform="translate(0.87 0.87)"/></g></g></g></g></g></g></svg>