<svg width="119" height="20" viewBox="0 0 119 20" fill="none" xmlns="http://www.w3.org/2000/svg">
<g clip-path="url(#clip0_18_235)">
<path fill-rule="evenodd" clip-rule="evenodd" d="M105.888 1.52538C106.35 1.98973 106.35 2.74367 105.888 3.20801L99.1451 9.98696L105.889 16.7624C106.111 16.9865 106.236 17.2896 106.236 17.6055C106.236 17.9214 106.111 18.2244 105.889 18.4485L104.373 19.9719L95.2401 10.7953C95.0269 10.5806 94.9073 10.2903 94.9073 9.98771C94.9073 9.68514 95.0269 9.39484 95.2401 9.1801L104.37 0.00102911L105.888 1.52538ZM118.019 9.22304C118.22 9.42546 118.333 9.69917 118.333 9.98447C118.333 10.2698 118.22 10.5435 118.019 10.7459L108.843 19.9714L107.259 18.3791C107.054 18.1734 106.94 17.8952 106.94 17.6052C106.94 17.3153 107.054 17.0371 107.259 16.8313L114.069 9.98497L107.317 3.20052C107.096 2.97876 106.973 2.67894 106.973 2.36645C106.973 2.05395 107.096 1.75413 107.317 1.53237L108.84 3.05176e-05L118.019 9.22304ZM91.6072 15.6789V15.7793H91.3231V16.5248H91.2083V15.7793H90.9242V15.6784H91.6072V15.6789ZM91.7091 15.6789H91.8723L92.1145 16.3939L92.3552 15.6784H92.5174V16.5248H92.4086V16.0255C92.4086 16.008 92.4086 15.9795 92.4096 15.9396C92.4106 15.8996 92.4111 15.8567 92.4111 15.8108L92.1704 16.5248H92.0571L91.8144 15.8108V15.8367C91.8144 15.8577 91.8149 15.8892 91.8164 15.9316L91.8179 16.0255V16.5248H91.7091V15.6784V15.6789ZM85.71 14.6609C87.6323 14.6609 88.9505 13.1196 88.9505 11.0784C88.9505 9.05927 87.6323 7.51794 85.71 7.51794C83.8092 7.51794 82.4916 9.10271 82.4916 11.1219C82.4916 13.1191 83.8092 14.6609 85.71 14.6609ZM86.2503 16.702C84.5866 16.702 83.1826 15.8767 82.4481 14.2919V16.5287H80.2882V1.74258L82.4481 1.30819V7.88692C83.1826 6.30165 84.5866 5.47682 86.2503 5.47682C89.0363 5.47682 91.2617 7.62629 91.2617 11.1004C91.2617 14.5525 89.0368 16.702 86.2503 16.702ZM69.0854 12.0336V5.65057H71.2454V12.2073C71.2454 13.6403 72.1526 14.6174 73.665 14.6174C75.1769 14.6174 76.0846 13.6408 76.0846 12.2073V5.65057H78.2446V12.0336C78.2446 15.0084 76.4081 16.68 73.665 16.68C70.9214 16.68 69.0854 15.0084 69.0854 12.0336ZM67.5711 16.68C65.3462 16.7669 64.115 15.5946 64.115 12.9678V1.74258L66.2749 1.30819V12.9678C66.2749 14.0098 66.8366 14.4871 67.614 14.4871H68.1757V16.6151C67.9772 16.6581 67.7747 16.6799 67.5716 16.68H67.5711ZM53.4195 11.0784C53.4195 7.62629 55.7962 5.47682 59.101 5.47682C60.6563 5.47682 62.0389 5.97611 63.0974 7.04011L61.7792 8.66832C60.9589 7.84348 59.9868 7.51794 59.1225 7.51794C57.1353 7.51794 55.7308 8.71176 55.7308 11.057C55.7308 13.4022 57.1353 14.6394 59.1225 14.6394C59.9863 14.6394 60.9589 14.2919 61.8012 13.4236L63.1189 15.0304C62.0603 16.0939 60.6993 16.68 59.101 16.68C55.8171 16.68 53.4195 14.5306 53.4195 11.0784ZM40.5891 15.5297L41.5612 13.5539C42.2742 14.0747 43.5484 14.6609 44.5205 14.6609C45.7303 14.6609 46.2057 14.0747 46.2057 13.4451C46.2271 12.7071 45.6225 12.4245 44.3478 12.0121C42.2093 11.361 40.9995 10.6011 40.9995 8.60341C40.9995 6.77948 42.3826 5.47682 44.888 5.47682C46.1842 5.47682 47.372 5.88924 48.3227 6.56229L47.3506 8.36475C46.7889 8.01724 45.8382 7.49597 44.7797 7.49597C43.851 7.49597 43.2893 7.86545 43.2893 8.58144C43.2893 9.16762 43.6997 9.55857 45.0608 9.97099C47.3725 10.666 48.5169 11.5343 48.5169 13.3582C48.5169 15.4208 46.8538 16.68 44.5425 16.68C42.9647 16.68 41.4534 16.1593 40.5891 15.5297ZM39.0318 2.52398H41.3645L40.0039 6.80145H38.2109L39.0318 2.52398ZM30.9072 16.5068H28.7468V9.90608C28.7468 8.538 28.0338 7.49597 26.5868 7.49597C25.0095 7.49597 23.9081 8.88552 23.9081 10.666V16.5068H21.7476V5.65057H23.9081V7.58285C24.5562 6.21478 25.744 5.45535 27.1266 5.45535C28.5745 5.45535 29.7623 6.21528 30.4099 7.51744C31.3176 6.08446 32.5269 5.45535 33.9749 5.45535C36.2427 5.45535 37.9059 7.17043 37.9059 9.92755V16.5068H35.7459V9.90608C35.7459 8.538 35.0329 7.49597 33.5855 7.49597C32.0087 7.49597 30.9072 8.88552 30.9072 10.666V16.5068ZM14.2996 7.51794C12.3773 7.51794 11.0592 9.05927 11.0592 11.1004C11.0592 13.1196 12.3773 14.6609 14.2996 14.6609C16.2009 14.6609 17.5186 13.0761 17.5186 11.057C17.5186 9.05977 16.2004 7.51794 14.2996 7.51794ZM17.5615 14.2919C16.8276 15.8772 15.423 16.702 13.7599 16.702C10.9733 16.702 8.74794 14.5525 8.74794 11.0784C8.74794 7.62629 10.9733 5.47682 13.7599 5.47682C15.423 5.47682 16.8271 6.30165 17.5615 7.88692V5.65057H19.722V16.5063H17.5615V14.2919ZM-0.000233125 15.5297L0.971897 13.5539C1.68489 14.0747 2.9591 14.6609 3.93123 14.6609C5.14102 14.6609 5.61635 14.0747 5.61635 13.4451C5.63782 12.7071 5.03318 12.4245 3.75897 12.0121C1.61949 11.361 0.409689 10.6011 0.409689 8.60341C0.409689 6.77948 1.79274 5.47682 4.29821 5.47682C5.59439 5.47682 6.78221 5.88924 7.73287 6.56229L6.76074 8.36475C6.19903 8.01724 5.24837 7.49597 4.18986 7.49597C3.26117 7.49597 2.69946 7.86545 2.69946 8.58144C2.69946 9.16762 3.10989 9.55857 4.47097 9.97099C6.78271 10.666 7.9271 11.5343 7.9271 13.3582C7.9271 15.4208 6.26394 16.68 3.9527 16.68C2.37542 16.68 0.86355 16.1593 -0.000732422 15.5297H-0.000233125Z" fill="#0067A0"/>
</g>
<defs>
<clipPath id="clip0_18_235">
<rect width="118.333" height="19.9719" fill="white"/>
</clipPath>
</defs>
</svg>
