<svg width="260" height="165" viewBox="0 0 260 165" fill="none" xmlns="http://www.w3.org/2000/svg">
<rect width="260" height="165" fill="white"/>
<path d="M27.0076 124.535C27.0076 111.009 29.6719 97.6164 34.8485 85.1207C40.025 72.625 47.6125 61.2715 57.1773 51.7084C66.7422 42.1453 78.0971 34.5601 90.5938 29.3859C103.09 24.2116 116.484 21.5498 130.009 21.5523C143.533 21.5523 156.925 24.216 169.419 29.3914C181.914 34.5667 193.266 42.1524 202.829 51.7152C212.392 61.278 219.978 72.6308 225.153 85.1252C230.328 97.6196 232.992 111.011 232.992 124.535H27.0076Z" fill="#EFFAF9"/>
<path d="M27.0076 124.535C27.0076 111.009 29.6719 97.6164 34.8485 85.1207C40.025 72.625 47.6125 61.2715 57.1773 51.7084C66.7422 42.1453 78.0971 34.5601 90.5938 29.3859C103.09 24.2116 116.484 21.5498 130.009 21.5523C143.533 21.5523 156.925 24.216 169.419 29.3914C181.914 34.5667 193.266 42.1524 202.829 51.7152C212.392 61.278 219.978 72.6308 225.153 85.1252C230.328 97.6196 232.992 111.011 232.992 124.535H27.0076Z" fill="url(#paint0_linear_622_7251)" fill-opacity="0.2"/>
<path fill-rule="evenodd" clip-rule="evenodd" d="M67.8034 34.9613C67.9076 35.6867 67.9593 36.4188 67.9583 37.1517C67.9583 44.6829 62.6117 50.7881 56.0204 50.7881C49.429 50.7881 44.0765 44.6829 44.0765 37.1517C44.0757 36.469 44.1219 35.787 44.2144 35.1106" fill="#D2F2EE"/>
<path d="M31.0202 138.248C31.0202 138.248 31.4217 129.722 40.0324 119.511C38.4835 114.728 36.5503 104.926 40.0324 91.1231C40.3741 89.7875 41.15 88.6042 42.2377 87.7598C43.3254 86.9155 44.6629 86.4584 46.0387 86.4607H48.1611C49.5372 86.4574 50.8752 86.914 51.963 87.7584C53.0509 88.6029 53.8267 89.787 54.1675 91.1231C54.288 91.5945 54.397 92.0545 54.5003 92.5202C55.2403 89.4445 57.1218 87.2368 59.5369 86.8689L61.8315 86.5183C64.9006 86.0468 68.0558 88.6626 69.467 92.8421C78.6112 120.006 73.2302 134.769 71.8362 137.88C73.4146 138.24 74.8248 139.125 75.8364 140.392C76.848 141.658 77.4014 143.231 77.4064 144.853H63.0074C63.0074 144.686 63.0074 144.525 63.0074 144.359C61.8601 142.14 57.271 132.343 55.1599 115.562C54.7637 117.585 54.1777 119.565 53.4101 121.478C53.3994 121.528 53.3861 121.578 53.37 121.627C50.3755 131.182 45.8492 136.948 42.6654 140.058C43.3814 141.433 43.6395 143.001 43.4021 144.533C43.1647 146.065 42.4443 147.481 41.3461 148.573L30.9857 138.271L31.0202 138.248Z" fill="#011631"/>
<path d="M49.6754 50.7882H61.3322C63.5353 50.7882 65.6997 51.3693 67.608 52.4728C68.5296 52.9484 69.3715 53.5653 70.1035 54.301L84.8237 68.9435C86.8889 70.9959 87.2618 73.9568 85.6612 75.5493L82.489 78.7053C80.8885 80.2978 77.8997 79.9243 75.846 77.8719L73.9757 76.0091V85.7363C73.9764 87.0275 73.7233 88.3062 73.2306 89.4992C72.7379 90.6923 72.0153 91.7765 71.1043 92.6895C70.1932 93.6026 69.1116 94.3266 67.9211 94.8204C66.7306 95.3142 65.4544 95.5679 64.166 95.5671H44.9713C42.1353 95.5671 39.4157 94.4381 37.4103 92.4285C35.405 90.4188 34.2784 87.693 34.2784 84.8509V66.2187C34.2784 64.1923 34.6766 62.1857 35.4504 60.3136C36.2242 58.4415 37.3582 56.7405 38.7879 55.3077C40.2177 53.8748 41.915 52.7384 43.7831 51.963C45.6511 51.1875 47.6535 50.7882 49.6754 50.7882Z" fill="#B6EBE5"/>
<g clip-path="url(#clip0_622_7251)">
<path opacity="0.3" d="M44.285 95.5098C41.6333 95.5084 39.0908 94.4499 37.2157 92.5668C35.3407 90.6837 34.2864 88.13 34.285 85.467V68C34.285 68 35.519 81.2324 37.7561 85.8874C41.093 92.816 44.285 95.5098 44.285 95.5098Z" fill="#011631"/>
</g>
<path d="M55.7678 20.4815C59.4027 20.4701 62.9167 21.7894 65.6494 24.1914C68.3822 26.5934 70.1455 29.9128 70.6082 33.5259H76.3448V35.3657H40.7778C40.786 33.4018 41.1806 31.4587 41.9385 29.6476C42.6965 27.8365 43.803 26.1929 45.1951 24.8107C46.5872 23.4284 48.2375 22.3345 50.0516 21.5917C51.8657 20.8489 53.8081 20.4717 55.7678 20.4815V20.4815Z" fill="#7DB9B0"/>
<path d="M59.6172 42.7694C60.067 42.7693 60.5029 42.6128 60.8505 42.3267C61.0718 42.1459 61.25 41.9177 61.3721 41.6591C61.4942 41.4004 61.557 41.1178 61.5561 40.8317V37.261H60.9365V40.8432C60.9355 41.037 60.8918 41.2284 60.8085 41.4033C60.7252 41.5782 60.6044 41.7323 60.4547 41.855C60.3036 41.981 60.1261 42.0714 59.9354 42.1192C59.7447 42.167 59.5458 42.1712 59.3533 42.1313L58.573 41.976L58.4525 42.5912L59.2329 42.7464C59.3601 42.7655 59.4887 42.7732 59.6172 42.7694V42.7694Z" fill="#011631"/>
<path d="M58.2461 47.9891C58.3492 47.9946 58.4527 47.9946 58.5559 47.9891C59.6745 47.9086 60.9653 47.5807 62.0897 45.7408L61.5561 45.4131C61.2717 45.9842 60.8384 46.4674 60.3021 46.8116C59.7658 47.1558 59.1464 47.3481 58.5099 47.368C57.8729 47.4201 57.2366 47.2616 56.6979 46.9169C56.1592 46.5722 55.748 46.06 55.527 45.4589L54.9534 45.6947C55.207 46.3656 55.6572 46.944 56.245 47.3534C56.8327 47.7629 57.5303 47.9846 58.2461 47.9891V47.9891Z" fill="#011631"/>
<path d="M49.3773 62.1137L64.0746 76.7335C66.134 78.7859 66.5126 81.7408 64.9121 83.3333L61.7455 86.4837C60.145 88.0762 57.1562 87.7024 55.1139 85.65L40.4166 71.0302" fill="#B6EBE5"/>
<path fill-rule="evenodd" clip-rule="evenodd" d="M63.7888 77.0201L49.0918 62.4006L49.6626 61.8269L64.3599 76.4467C66.5052 78.5846 67.0212 81.8056 65.1975 83.6202L62.0309 86.7706C62.0309 86.7706 62.0309 86.7706 62.0309 86.7706C60.2101 88.5822 56.9578 88.0763 54.8277 85.9362C54.8274 85.936 54.8272 85.9357 54.8269 85.9355L40.1311 71.3172L40.702 70.7434L55.4007 85.3647C57.355 87.3287 60.0799 87.5701 61.4599 86.197L64.6266 83.0465C64.6266 83.0465 64.6266 83.0465 64.6266 83.0465C66.0039 81.6761 65.7624 78.987 63.7888 77.0201Z" fill="#011631"/>
<path d="M60.0073 87.8805C60.874 88.7396 62.0439 89.2215 63.263 89.2215C64.482 89.2215 65.6517 88.7396 66.5184 87.8805C66.9465 87.4565 67.2864 86.9515 67.5184 86.395C67.7503 85.8384 67.8696 85.2414 67.8696 84.6383C67.8696 84.0351 67.7503 83.4379 67.5184 82.8813C67.2864 82.3247 66.9465 81.8198 66.5184 81.3958L60.0073 87.8805Z" fill="#F8FAFF"/>
<path fill-rule="evenodd" clip-rule="evenodd" d="M66.5174 80.8255L66.803 81.1084C67.2691 81.5701 67.6392 82.1198 67.8918 82.7258C68.1443 83.3317 68.2741 83.9819 68.2741 84.6384C68.2741 85.2949 68.1443 85.9448 67.8918 86.5507C67.6392 87.1566 67.2691 87.7064 66.803 88.1681C65.8607 89.1021 64.5886 89.6262 63.2628 89.6262C61.9369 89.6262 60.6645 89.1021 59.7221 88.168L59.4329 87.8813L66.5174 80.8255ZM66.5052 81.98L60.5951 87.866C61.3456 88.4785 62.287 88.8169 63.2628 88.8169C64.3749 88.8169 65.4423 88.3773 66.2333 87.5932C66.6233 87.2069 66.9332 86.7466 67.1446 86.2394C67.356 85.7322 67.4647 85.1882 67.4647 84.6384C67.4647 84.0885 67.356 83.5442 67.1446 83.037C66.985 82.654 66.7692 82.2978 66.5052 81.98Z" fill="#011631"/>
<path d="M80.6362 80.3091C81.5029 81.1682 82.6726 81.6501 83.8916 81.6501C85.1106 81.6501 86.2803 81.1682 87.147 80.3091C87.5751 79.8851 87.915 79.3802 88.147 78.8236C88.3789 78.267 88.4982 77.6698 88.4982 77.0666C88.4982 76.4635 88.3789 75.8665 88.147 75.3099C87.915 74.7534 87.5751 74.2484 87.147 73.8244L80.6362 80.3091Z" fill="#F8FAFF"/>
<path fill-rule="evenodd" clip-rule="evenodd" d="M193.197 34.9613C193.092 35.6867 193.041 36.4188 193.042 37.1517C193.042 44.6829 198.388 50.7881 204.98 50.7881C211.571 50.7881 216.923 44.6829 216.923 37.1517C216.924 36.469 216.878 35.787 216.786 35.1106" fill="#D2F2EE"/>
<path d="M229.98 138.248C229.98 138.248 229.578 129.722 220.968 119.511C222.517 114.728 224.45 104.926 220.968 91.1231C220.626 89.7875 219.85 88.6042 218.762 87.7598C217.675 86.9155 216.337 86.4584 214.961 86.4607H212.839C211.463 86.4574 210.125 86.914 209.037 87.7584C207.949 88.6029 207.173 89.787 206.833 91.1231C206.712 91.5945 206.603 92.0545 206.5 92.5202C205.76 89.4445 203.878 87.2368 201.463 86.8689L199.168 86.5183C196.099 86.0468 192.944 88.6626 191.533 92.8421C182.389 120.006 187.77 134.769 189.164 137.88C187.585 138.24 186.175 139.125 185.164 140.392C184.152 141.658 183.599 143.231 183.594 144.853H197.993C197.993 144.686 197.993 144.525 197.993 144.359C199.14 142.14 203.729 132.343 205.84 115.562C206.236 117.585 206.822 119.565 207.59 121.478C207.601 121.528 207.614 121.578 207.63 121.627C210.624 131.182 215.151 136.948 218.335 140.058C217.619 141.433 217.36 143.001 217.598 144.533C217.835 146.065 218.556 147.481 219.654 148.573L230.014 138.271L229.98 138.248Z" fill="#011631"/>
<path d="M211.325 50.7882H199.668C197.465 50.7882 195.3 51.3693 193.392 52.4728C192.47 52.9484 191.628 53.5653 190.897 54.301L176.176 68.9435C174.111 70.9959 173.738 73.9568 175.339 75.5493L178.511 78.7053C180.112 80.2978 183.1 79.9243 185.154 77.8719L187.024 76.0091V85.7363C187.024 87.0275 187.277 88.3062 187.769 89.4992C188.262 90.6923 188.985 91.7765 189.896 92.6895C190.807 93.6026 191.888 94.3266 193.079 94.8204C194.269 95.3142 195.546 95.5679 196.834 95.5671H216.029C218.865 95.5671 221.584 94.4381 223.59 92.4285C225.595 90.4188 226.722 87.693 226.722 84.8509V66.2187C226.722 64.1923 226.323 62.1857 225.55 60.3136C224.776 58.4415 223.642 56.7405 222.212 55.3077C220.782 53.8748 219.085 52.7384 217.217 51.963C215.349 51.1875 213.347 50.7882 211.325 50.7882Z" fill="#B6EBE5"/>
<path opacity="0.3" d="M216.721 95.405C219.373 95.4036 221.916 94.3451 223.791 92.462C225.666 90.579 226.72 88.0253 226.722 85.3622V67.8953C226.722 67.8953 225.488 81.1276 223.25 85.7826C219.914 92.7113 216.721 95.405 216.721 95.405Z" fill="#011631"/>
<path d="M205.232 20.4815C201.597 20.4701 198.083 21.7894 195.35 24.1914C192.618 26.5934 190.854 29.9128 190.392 33.5259H184.655V35.3657H220.222C220.214 33.4018 219.819 31.4587 219.061 29.6476C218.303 27.8365 217.197 26.1929 215.805 24.8107C214.413 23.4284 212.762 22.3345 210.948 21.5917C209.134 20.8489 207.192 20.4717 205.232 20.4815V20.4815Z" fill="#7DB9B0"/>
<path d="M201.383 42.7694C200.933 42.7693 200.497 42.6128 200.149 42.3267C199.928 42.1459 199.75 41.9177 199.628 41.6591C199.506 41.4004 199.443 41.1178 199.444 40.8317V37.261H200.063V40.8432C200.065 41.037 200.108 41.2284 200.192 41.4033C200.275 41.5782 200.396 41.7323 200.545 41.855C200.696 41.981 200.874 42.0714 201.065 42.1192C201.255 42.167 201.454 42.1712 201.647 42.1313L202.427 41.976L202.547 42.5912L201.767 42.7464C201.64 42.7655 201.511 42.7732 201.383 42.7694V42.7694Z" fill="#011631"/>
<path d="M202.754 47.9891C202.651 47.9946 202.547 47.9946 202.444 47.9891C201.326 47.9086 200.035 47.5807 198.91 45.7408L199.444 45.4131C199.728 45.9842 200.162 46.4674 200.698 46.8116C201.234 47.1558 201.854 47.3481 202.49 47.368C203.127 47.4201 203.763 47.2616 204.302 46.9169C204.841 46.5722 205.252 46.06 205.473 45.4589L206.047 45.6947C205.793 46.3656 205.343 46.944 204.755 47.3534C204.167 47.7629 203.47 47.9846 202.754 47.9891V47.9891Z" fill="#011631"/>
<path d="M211.623 62.1137L196.925 76.7335C194.866 78.7859 194.487 81.7408 196.088 83.3333L199.255 86.4837C200.855 88.0762 203.844 87.7024 205.886 85.65L220.583 71.0302" fill="#B6EBE5"/>
<path fill-rule="evenodd" clip-rule="evenodd" d="M197.211 77.0201L211.908 62.4006L211.337 61.8269L196.64 76.4467C194.495 78.5846 193.979 81.8056 195.803 83.6202L198.969 86.7706C198.969 86.7706 198.969 86.7706 198.969 86.7706C200.79 88.5822 204.042 88.0763 206.172 85.9362C206.173 85.936 206.173 85.9357 206.173 85.9355L220.869 71.3172L220.298 70.7434L205.599 85.3647C203.645 87.3287 200.92 87.5701 199.54 86.197L196.373 83.0465C196.373 83.0465 196.373 83.0465 196.373 83.0465C194.996 81.6761 195.238 78.987 197.211 77.0201Z" fill="#011631"/>
<path d="M200.993 87.8805C200.126 88.7396 198.956 89.2215 197.737 89.2215C196.518 89.2215 195.348 88.7396 194.482 87.8805C194.053 87.4565 193.714 86.9515 193.482 86.395C193.25 85.8384 193.13 85.2414 193.13 84.6383C193.13 84.0351 193.25 83.4379 193.482 82.8813C193.714 82.3247 194.053 81.8198 194.482 81.3958L200.993 87.8805Z" fill="#F8FAFF"/>
<path fill-rule="evenodd" clip-rule="evenodd" d="M194.483 80.8255L194.197 81.1084C193.731 81.5701 193.361 82.1198 193.108 82.7258C192.856 83.3317 192.726 83.9819 192.726 84.6384C192.726 85.2949 192.856 85.9448 193.108 86.5507C193.361 87.1566 193.731 87.7064 194.197 88.1681C195.139 89.1021 196.411 89.6262 197.737 89.6262C199.063 89.6262 200.336 89.1021 201.278 88.168L201.567 87.8813L194.483 80.8255ZM194.495 81.98L200.405 87.866C199.654 88.4785 198.713 88.8169 197.737 88.8169C196.625 88.8169 195.558 88.3773 194.767 87.5932C194.377 87.2069 194.067 86.7466 193.855 86.2394C193.644 85.7322 193.535 85.1882 193.535 84.6384C193.535 84.0885 193.644 83.5442 193.855 83.037C194.015 82.654 194.231 82.2978 194.495 81.98Z" fill="#011631"/>
<path d="M180.364 80.3091C179.497 81.1682 178.327 81.6501 177.108 81.6501C175.889 81.6501 174.72 81.1682 173.853 80.3091C173.425 79.8851 173.085 79.3802 172.853 78.8236C172.621 78.267 172.502 77.6698 172.502 77.0666C172.502 76.4635 172.621 75.8665 172.853 75.3099C173.085 74.7534 173.425 74.2484 173.853 73.8244L180.364 80.3091Z" fill="#F8FAFF"/>
<path d="M189.312 147.665H182.407L180.282 130.684H191.437L189.312 147.665Z" fill="#F8F47B"/>
<path d="M190.038 131.906L188.22 146.41H183.505L181.687 131.906H190.038V131.906ZM191.444 130.67H180.282L182.413 147.672H189.318L191.444 130.67V130.67Z" fill="#081930"/>
<path d="M78.1572 147.665H71.2522L69.127 130.684H80.2889L78.1572 147.665Z" fill="#F8F47B"/>
<path d="M78.883 131.906L77.0717 146.41H72.3506L70.5328 131.906H78.883ZM80.2889 130.67H69.1335L71.2586 147.672H78.1637L80.2889 130.67Z" fill="#081930"/>
<path d="M180.321 98.6428H79.7006V70.8525C79.7006 60.7368 88.09 52.5435 98.4345 52.5435H161.581C171.932 52.5435 180.321 60.7498 180.321 70.8525V98.6428Z" fill="#D2F2EE"/>
<path d="M161.581 53.7729C171.232 53.7729 179.079 61.4365 179.079 70.8525V97.4005H80.943V70.8525C80.943 61.4365 88.7896 53.7729 98.4345 53.7729H161.581ZM161.581 52.5305H98.4345C88.09 52.5305 79.7006 60.7368 79.7006 70.8394V98.6297H180.321V70.8394C180.321 60.7237 171.932 52.5305 161.581 52.5305Z" fill="#081930"/>
<g style="mix-blend-mode:luminosity" opacity="0.3">
<path d="M111.669 97.4788H80.8121V69.6885C80.8121 69.6885 83.1203 81.1708 90.0189 87.9974C96.7605 94.7194 111.669 97.4788 111.669 97.4788Z" fill="#011631"/>
</g>
<path d="M179.203 98.5512H80.8121V112.714H179.203V98.5512Z" fill="#EFFAF9"/>
<path d="M65.5045 130.729H194.517V90.43C194.515 88.62 193.796 86.8846 192.516 85.6048C191.236 84.3249 189.501 83.6051 187.691 83.6034H185.559C183.749 83.6069 182.015 84.3272 180.736 85.6067C179.456 86.8862 178.736 88.6205 178.732 90.43V112.048H81.3025V90.43C81.3008 88.6211 80.5819 86.8867 79.3034 85.6071C78.025 84.3274 76.2913 83.6069 74.4824 83.6034H72.3508C70.5408 83.6051 68.8054 84.3249 67.5255 85.6048C66.2457 86.8846 65.5259 88.62 65.5241 90.43L65.5045 130.729Z" fill="#D2F2EE"/>
<path d="M187.69 84.8261C189.171 84.8278 190.59 85.4167 191.637 86.4636C192.684 87.5104 193.273 88.9298 193.275 90.4103V129.474H66.7469V90.4103C66.7486 88.9298 67.3375 87.5104 68.3844 86.4636C69.4313 85.4167 70.8506 84.8278 72.3311 84.8261H74.4628C75.9433 84.8278 77.3627 85.4167 78.4095 86.4636C79.4564 87.5104 80.0453 88.9298 80.047 90.4103V113.264H179.975V90.4103C179.976 88.9298 180.565 87.5104 181.612 86.4636C182.659 85.4167 184.078 84.8278 185.559 84.8261H187.69ZM187.69 83.5837H185.559C183.749 83.5871 182.015 84.3075 180.735 85.587C179.456 86.8664 178.736 88.6008 178.732 90.4103V112.028H81.3025V90.4103C81.3008 88.6014 80.5819 86.867 79.3034 85.5874C78.025 84.3077 76.2913 83.5871 74.4824 83.5837H72.3507C70.5407 83.5854 68.8054 84.3052 67.5255 85.5851C66.2456 86.8649 65.5258 88.6003 65.5241 90.4103V130.71H194.537V90.4103C194.535 88.6003 193.815 86.8649 192.535 85.5851C191.255 84.3052 189.52 83.5854 187.71 83.5837H187.69Z" fill="#081930"/>
<path d="M103.195 82.5047C105.322 82.5047 107.046 80.7804 107.046 78.6533C107.046 76.5262 105.322 74.8019 103.195 74.8019C101.068 74.8019 99.3433 76.5262 99.3433 78.6533C99.3433 80.7804 101.068 82.5047 103.195 82.5047Z" fill="#F8F47B"/>
<path d="M103.195 76.0378C103.888 76.0378 104.554 76.3134 105.044 76.8039C105.535 77.2944 105.81 77.9597 105.81 78.6534C105.81 79.3471 105.535 80.0123 105.044 80.5028C104.554 80.9934 103.888 81.2689 103.195 81.2689C102.501 81.2689 101.836 80.9934 101.345 80.5028C100.855 80.0123 100.579 79.3471 100.579 78.6534C100.579 77.9597 100.855 77.2944 101.345 76.8039C101.836 76.3134 102.501 76.0378 103.195 76.0378ZM103.195 74.7954C102.173 74.7954 101.194 75.2012 100.471 75.9235C99.749 76.6457 99.3433 77.6254 99.3433 78.6468C99.3433 79.6683 99.749 80.6479 100.471 81.3702C101.194 82.0925 102.173 82.4982 103.195 82.4982C103.701 82.4991 104.202 82.4001 104.67 82.2068C105.137 82.0136 105.562 81.7299 105.92 81.3721C106.278 81.0143 106.561 80.5894 106.755 80.1217C106.948 79.6541 107.047 79.1528 107.046 78.6468C107.046 77.6254 106.64 76.6457 105.918 75.9235C105.196 75.2012 104.216 74.7954 103.195 74.7954V74.7954Z" fill="#081930"/>
<path d="M157.049 82.5047C159.176 82.5047 160.9 80.7804 160.9 78.6533C160.9 76.5262 159.176 74.8019 157.049 74.8019C154.922 74.8019 153.198 76.5262 153.198 78.6533C153.198 80.7804 154.922 82.5047 157.049 82.5047Z" fill="#F8F47B"/>
<path d="M157.049 76.0378C157.743 76.0378 158.408 76.3134 158.899 76.8039C159.389 77.2944 159.665 77.9597 159.665 78.6534C159.665 79.3471 159.389 80.0123 158.899 80.5028C158.408 80.9934 157.743 81.2689 157.049 81.2689C156.355 81.2689 155.69 80.9934 155.2 80.5028C154.709 80.0123 154.433 79.3471 154.433 78.6534C154.433 77.9597 154.709 77.2944 155.2 76.8039C155.69 76.3134 156.355 76.0378 157.049 76.0378ZM157.049 74.7954C156.028 74.7954 155.048 75.2012 154.326 75.9235C153.603 76.6457 153.198 77.6254 153.198 78.6468C153.198 79.6683 153.603 80.6479 154.326 81.3702C155.048 82.0925 156.028 82.4982 157.049 82.4982C157.555 82.4991 158.056 82.4001 158.524 82.2068C158.992 82.0136 159.417 81.7299 159.774 81.3721C160.132 81.0143 160.416 80.5894 160.609 80.1217C160.802 79.6541 160.901 79.1528 160.9 78.6468C160.9 77.6254 160.495 76.6457 159.772 75.9235C159.05 75.2012 158.071 74.7954 157.049 74.7954Z" fill="#081930"/>
<path d="M130.122 82.5047C132.249 82.5047 133.973 80.7804 133.973 78.6533C133.973 76.5262 132.249 74.8019 130.122 74.8019C127.995 74.8019 126.271 76.5262 126.271 78.6533C126.271 80.7804 127.995 82.5047 130.122 82.5047Z" fill="#F8F47B"/>
<path d="M130.096 76.0378C130.79 76.0378 131.455 76.3134 131.945 76.8039C132.436 77.2944 132.711 77.9597 132.711 78.6534C132.711 79.3471 132.436 80.0123 131.945 80.5028C131.455 80.9934 130.79 81.2689 130.096 81.2689C129.402 81.2689 128.737 80.9934 128.246 80.5028C127.756 80.0123 127.48 79.3471 127.48 78.6534C127.48 77.9597 127.756 77.2944 128.246 76.8039C128.737 76.3134 129.402 76.0378 130.096 76.0378ZM130.096 74.7954C129.074 74.7954 128.095 75.2012 127.372 75.9235C126.65 76.6457 126.244 77.6254 126.244 78.6468C126.244 79.6683 126.65 80.6479 127.372 81.3702C128.095 82.0925 129.074 82.4982 130.096 82.4982C130.602 82.4991 131.103 82.4001 131.571 82.2068C132.038 82.0136 132.463 81.7299 132.821 81.3721C133.179 81.0143 133.463 80.5894 133.656 80.1217C133.849 79.6541 133.948 79.1528 133.947 78.6468C133.947 77.6254 133.541 76.6457 132.819 75.9235C132.097 75.2012 131.117 74.7954 130.096 74.7954Z" fill="#081930"/>
<defs>
<linearGradient id="paint0_linear_622_7251" x1="130" y1="21.5523" x2="130" y2="124.535" gradientUnits="userSpaceOnUse">
<stop stop-color="#EFFAF9"/>
<stop offset="1" stop-color="#7DB9B0"/>
</linearGradient>
<clipPath id="clip0_622_7251">
<rect width="10" height="28" fill="white" transform="translate(33.9999 68)"/>
</clipPath>
</defs>
</svg>
