<svg width="143" height="31" viewBox="0 0 143 31" fill="none" xmlns="http://www.w3.org/2000/svg">
<path d="M80.6485 0.229995L77.9543 8.017C77.7243 8.64128 77.1657 9.03555 76.5086 9.03555H66.0602C65.4031 9.03555 64.8117 8.60842 64.6145 8.017L61.9203 0.229995C61.8874 0.0985687 61.756 0 61.5917 0H60.3432C60.1132 0 59.9489 0.229999 60.0146 0.459995L63.4645 10.4155C63.5631 10.7112 63.8588 10.9412 64.1874 10.9412H78.4143C78.7428 10.9412 79.0386 10.7441 79.1371 10.4155L82.5871 0.459995C82.6856 0.229999 82.4885 0 82.2585 0H80.9771C80.8457 0 80.7142 0.0985687 80.6485 0.229995Z" fill="#095EA9"/>
<path d="M66.4873 8.14843H76.0814C76.6071 8.14843 77.0342 7.81986 77.2314 7.32701L79.5971 0.459995C79.6956 0.229999 79.4985 0 79.2685 0H78.0199C77.8557 0 77.7242 0.0985687 77.6914 0.229995L75.95 5.2242C75.72 5.84847 75.1614 6.24275 74.5043 6.24275H68.0644C67.4073 6.24275 66.8158 5.81561 66.6187 5.2242L64.8773 0.229995C64.8445 0.0985687 64.713 0 64.5487 0H63.3002C63.0702 0 62.9059 0.229999 62.9716 0.459995L65.3373 7.32701C65.5016 7.81986 65.9616 8.14843 66.4873 8.14843Z" fill="#095EA9"/>
<path d="M68.4918 5.32276H74.0774C74.6031 5.32276 75.0303 4.9942 75.2274 4.50135L76.6403 0.459995C76.7388 0.229999 76.5417 0 76.3117 0H75.0631C74.8989 0 74.7674 0.0985687 74.7346 0.229995L73.946 2.46424C73.7489 3.0228 73.2232 3.41709 72.5989 3.41709H70.0032C69.4118 3.41709 68.8532 3.0228 68.6561 2.46424L67.8675 0.229995C67.8347 0.0985687 67.7033 0 67.539 0H66.2904C66.0604 0 65.8962 0.229999 65.9619 0.459995L67.3747 4.50135C67.5061 4.9942 67.9661 5.32276 68.4918 5.32276Z" fill="#095EA9"/>
<path d="M74.2558 22.3513H71.6602V30.5326H74.2558V22.3513Z" fill="#095EA9"/>
<path d="M70.5431 25.0127C70.5431 22.7784 68.736 22.187 66.8304 22.187C65.9104 22.187 65.0232 22.5156 64.3004 22.9099C63.6104 23.337 63.1176 23.9941 63.0519 25.0455H65.4832C65.6147 24.3555 66.0747 24.0598 66.7646 24.0598C67.2903 24.0598 68.0132 24.2898 68.0132 24.8812C68.0132 25.3741 67.7503 25.3412 67.3232 25.407C65.5161 25.7684 62.6904 25.7684 62.6904 28.364C62.6904 30.0069 63.8733 30.7626 65.4175 30.7626C66.3704 30.7626 67.3561 30.4997 68.046 29.7769C68.0789 30.0397 68.1118 30.3026 68.2103 30.5326H70.8389C70.5431 29.9083 70.5431 29.1526 70.5431 28.4955V25.0127ZM66.4361 28.8897C65.8447 28.8897 65.3518 28.7912 65.3518 28.1669C65.3518 27.5426 65.8447 27.3783 66.4361 27.2469C66.9946 27.0826 67.5203 26.9512 67.8818 26.7212C67.9146 28.364 67.6846 28.8897 66.4361 28.8897Z" fill="#095EA9"/>
<path d="M80.433 22.22C79.4801 22.22 78.3958 22.5157 77.9359 23.3042H77.903V22.45H75.373V30.5327H77.9687V26.1956C77.9687 25.3413 78.3958 24.4871 79.3815 24.4871C80.7944 24.4871 80.6629 25.6042 80.6629 26.6885V30.5327H83.2586V25.4399C83.2915 24.2899 83.0943 22.22 80.433 22.22Z" fill="#095EA9"/>
<path d="M88.4829 21.9899C86.1501 22.0227 84.1787 23.6984 84.1787 26.1298C84.1787 28.7912 85.8873 30.7297 88.4829 30.7297C90.2572 30.7297 92.0643 29.5469 92.5243 27.7069H89.8629C89.6 28.2983 89.1072 28.6597 88.4829 28.6597C87.6615 28.6597 87.1358 28.1012 86.9715 27.1483H92.6886C93.2143 24.1584 91.3743 21.957 88.4829 21.9899ZM86.9715 25.4727C87.1358 24.5198 87.5958 23.8298 88.5158 23.8298C89.3701 23.8298 89.9615 24.5855 90.06 25.4727H86.9715Z" fill="#095EA9"/>
<path d="M74.2558 19.5916H71.6602V21.5629H74.2558V19.5916Z" fill="#095EA9"/>
<path d="M60.6858 20.4785H58.0901V22.5813H56.7759V24.257H58.0901V27.937C58.0901 30.1055 58.6487 30.7298 60.8829 30.7298C61.3429 30.7298 61.8358 30.664 62.2958 30.664V28.7584C62.0658 28.7584 61.8358 28.7912 61.6058 28.7912C61.0472 28.7912 60.6529 28.6598 60.6529 28.0355V24.257H62.2629V22.5813H60.6858V20.4785Z" fill="#095EA9"/>
<path d="M53.6219 22.22C52.6691 22.22 51.5848 22.5157 51.1248 23.3042H51.092V22.45H48.562V30.5327H51.1577V26.1956C51.1577 25.3413 51.5848 24.4871 52.5705 24.4871C53.9833 24.4871 53.8519 25.6042 53.8519 26.6885V30.5327H56.4476V25.4399C56.4804 24.2899 56.2833 22.22 53.6219 22.22Z" fill="#095EA9"/>
<path d="M21.7842 21.9899C19.4514 22.0227 17.48 23.6984 17.48 26.1298C17.48 28.7912 19.1885 30.7297 21.7842 30.7297C23.5584 30.7297 25.3656 29.5469 25.8255 27.7069H23.1642C22.9013 28.2983 22.4085 28.6597 21.7842 28.6597C20.9628 28.6597 20.4371 28.1012 20.2728 27.1483H25.9898C26.5155 24.1584 24.6427 21.957 21.7842 21.9899ZM20.2399 25.4727C20.4042 24.5198 20.8642 23.8298 21.7842 23.8298C22.6385 23.8298 23.2299 24.5855 23.3284 25.4727H20.2399Z" fill="#095EA9"/>
<path d="M13.734 21.9244C12.7812 21.9244 11.6969 22.3515 11.3027 23.1729H11.2698V19.5916H9.36412H8.47699H0V22.0558H3.2528V30.5328H6.11132V22.0229H8.47699V30.4999H11.2698V26.1629C11.2698 25.3086 11.5326 24.06 12.5183 24.06C13.9312 24.06 13.7998 25.5714 13.7998 26.6557V30.4999H16.5597V25.4072C16.5926 24.29 16.3626 21.9244 13.734 21.9244Z" fill="#095EA9"/>
<path d="M43.5024 22.0227C41.0381 22.0227 39.3296 23.8298 39.3296 26.2283C39.3296 28.6269 41.0381 30.7954 43.5024 30.7954C45.9666 30.7954 47.708 28.7254 47.708 26.3598C47.6752 23.9612 45.9666 22.0227 43.5024 22.0227ZM43.5024 28.4626C42.2867 28.4626 41.9253 27.3783 41.9253 26.3598C41.9253 25.3412 42.2867 24.2898 43.5024 24.2898C44.7181 24.2898 45.1123 25.3741 45.1123 26.3598C45.1123 27.3455 44.7181 28.4626 43.5024 28.4626Z" fill="#095EA9"/>
<path d="M33.7766 28.2984C32.3966 28.2984 31.3781 26.6884 31.3781 25.0456C31.3781 23.4028 32.068 21.5957 33.908 21.5957C35.0908 21.5957 35.5837 22.0228 35.748 23.1071H38.4094C38.3108 20.4785 36.3394 19 33.9737 19C30.6552 19 28.5195 21.6942 28.5195 24.8485C28.5195 28.0356 30.6552 30.6969 33.9737 30.6969C36.7337 30.6969 38.5736 28.4298 38.5736 26.2284H35.7151C35.6165 27.5427 35.1237 28.2984 33.7766 28.2984Z" fill="#095EA9"/>
<path d="M120.189 22.0227C117.725 22.0227 116.017 23.8298 116.017 26.2283C116.017 28.6269 117.725 30.7954 120.189 30.7954C122.654 30.7954 124.395 28.7254 124.395 26.3598C124.395 23.9612 122.654 22.0227 120.189 22.0227ZM120.189 28.4626C118.974 28.4626 118.612 27.3783 118.612 26.3598C118.612 25.3412 118.974 24.2898 120.189 24.2898C121.405 24.2898 121.799 25.3741 121.799 26.3598C121.799 27.3455 121.405 28.4626 120.189 28.4626Z" fill="#095EA9"/>
<path d="M134.778 21.9899C132.445 22.0227 130.474 23.6984 130.474 26.1298C130.474 28.7912 132.182 30.7297 134.778 30.7297C136.552 30.7297 138.359 29.5469 138.819 27.7069H136.158C135.895 28.2983 135.402 28.6597 134.778 28.6597C133.956 28.6597 133.431 28.1012 133.266 27.1483H138.983C139.476 24.1584 137.636 21.957 134.778 21.9899ZM133.234 25.4727C133.398 24.5198 133.858 23.8298 134.778 23.8298C135.632 23.8298 136.224 24.5855 136.322 25.4727H133.234Z" fill="#095EA9"/>
<path d="M141.447 21.53C141.447 21.1029 141.184 20.9714 140.692 20.9714H139.969V22.8771H140.363V22.0557H140.593L141.053 22.8771H141.447L140.922 22.0557C141.25 21.99 141.447 21.8586 141.447 21.53ZM140.363 21.76V21.2671H140.692C140.856 21.2671 141.086 21.3 141.086 21.4971C141.086 21.7271 140.922 21.76 140.724 21.76H140.363Z" fill="#095EA9"/>
<path d="M140.725 20.0186C139.608 20.0186 138.753 20.84 138.753 21.9242C138.753 23.0085 139.608 23.8299 140.725 23.8299C141.842 23.8299 142.696 23.0085 142.696 21.9242C142.696 20.84 141.842 20.0186 140.725 20.0186ZM140.725 23.5999C139.903 23.5999 139.016 23.0085 139.016 21.9242C139.016 20.84 139.903 20.2814 140.725 20.2814C141.546 20.2814 142.433 20.8728 142.433 21.9242C142.466 23.0085 141.579 23.5999 140.725 23.5999Z" fill="#095EA9"/>
<path d="M96.2371 23.567H96.2043V22.417H93.6743V30.4997H96.27V26.4912C96.27 25.6369 96.73 25.3084 97.65 24.7498C98.7014 24.6184 98.7342 24.6841 98.7342 24.6841V22.187C97.7814 22.2199 96.6971 22.7784 96.2371 23.567Z" fill="#095EA9"/>
<path d="M127.878 23.567H127.845V22.417H125.315V30.4997H127.911V26.4912C127.911 25.6369 128.371 25.3084 129.291 24.7498C130.342 24.6184 130.375 24.6841 130.375 24.6841V22.187C129.422 22.2199 128.338 22.7784 127.878 23.567Z" fill="#095EA9"/>
<path d="M114.176 20.4785H111.581V22.5813H110.431C110.234 20.3142 108.197 19.1313 106.127 19.1313C104.057 19.1313 101.724 20.3142 101.724 22.7127C101.724 24.717 103.432 25.6041 105.009 26.0641C106.587 26.4912 107.999 26.4912 107.999 27.4769C107.999 28.2983 107.244 28.594 106.389 28.594C105.174 28.594 104.385 28.1669 104.319 26.8855H101.461C101.461 29.6783 103.695 30.7954 106.192 30.7954C108.591 30.7954 110.858 29.9083 110.858 27.1483C110.858 25.177 109.379 24.4213 107.802 23.9941C106.225 23.567 104.352 23.4027 104.352 22.5484C104.352 21.8256 105.404 21.4313 105.995 21.4313C106.849 21.4313 107.802 21.9242 107.769 22.9099H110.234V24.2898H111.548V27.9698C111.548 30.1383 112.106 30.7626 114.341 30.7626C114.834 30.7626 115.294 30.6969 115.754 30.6969V28.7912C115.524 28.7912 115.294 28.824 115.064 28.824C114.505 28.824 114.111 28.6926 114.111 28.0683V24.2898H115.721V22.6141H114.111L114.176 20.4785Z" fill="#095EA9"/>
</svg>
