<svg width="17" height="19" viewBox="0 0 17 19" fill="none" xmlns="http://www.w3.org/2000/svg">
<path fill-rule="evenodd" clip-rule="evenodd" d="M14.132 4.86176C14.132 5.43176 13.672 5.89575 13.105 5.89575C12.54 5.89575 12.081 5.43276 12.081 4.86176C12.081 4.29076 12.54 3.82675 13.105 3.82675C13.671 3.82675 14.132 4.29076 14.132 4.86176ZM8.54501 12.3347C6.97201 12.3347 5.69601 11.0488 5.69601 9.46277C5.69601 7.87577 6.97199 6.58975 8.54599 6.58975C10.117 6.58975 11.393 7.87577 11.393 9.46277C11.393 11.0488 10.117 12.3347 8.54501 12.3347ZM8.54501 5.03674C6.12001 5.03674 4.15601 7.01677 4.15601 9.46277C4.15601 11.9078 6.11999 13.8878 8.54599 13.8878C10.968 13.8878 12.932 11.9078 12.932 9.46277C12.932 7.01677 10.968 5.03674 8.54501 5.03674ZM8.54501 2.39676C10.825 2.39676 11.095 2.40475 11.997 2.44675C12.831 2.48475 13.282 2.62477 13.584 2.74277C13.982 2.89977 14.267 3.08676 14.566 3.38776C14.866 3.68976 15.05 3.97675 15.206 4.37775C15.323 4.68275 15.461 5.13877 15.5 5.97977C15.54 6.88777 15.55 7.15977 15.55 9.46277C15.55 11.7638 15.54 12.0368 15.5 12.9448C15.461 13.7848 15.323 14.2417 15.206 14.5457C15.05 14.9477 14.866 15.2337 14.566 15.5367C14.267 15.8367 13.982 16.0248 13.584 16.1818C13.282 16.2998 12.831 16.4398 11.997 16.4778C11.096 16.5198 10.826 16.5278 8.54501 16.5278C6.26301 16.5278 5.992 16.5198 5.091 16.4778C4.259 16.4398 3.80601 16.2998 3.505 16.1818C3.106 16.0248 2.821 15.8377 2.522 15.5367C2.224 15.2337 2.038 14.9468 1.883 14.5468C1.766 14.2418 1.62701 13.7848 1.58801 12.9448C1.54801 12.0368 1.539 11.7648 1.539 9.46277C1.539 7.16077 1.54799 6.88777 1.58899 5.97977C1.62699 5.13977 1.766 4.68275 1.883 4.37875C2.038 3.97675 2.223 3.68976 2.522 3.38776C2.821 3.08776 3.106 2.89977 3.505 2.74277C3.805 2.62477 4.259 2.48475 5.091 2.44675C5.992 2.40475 6.26301 2.39676 8.54501 2.39676ZM8.54501 0.84375C6.22501 0.84375 5.932 0.853752 5.021 0.895752C4.111 0.935752 3.49099 1.08275 2.94699 1.29575C2.38499 1.51575 1.90901 1.80976 1.43201 2.28976C0.958007 2.76976 0.666998 3.24977 0.447998 3.81577C0.235998 4.36477 0.0919878 4.99175 0.0499878 5.90875C0.00898779 6.82775 0 7.12177 0 9.46277C0 11.8028 0.00898779 12.0967 0.0499878 13.0157C0.0919878 13.9327 0.235998 14.5598 0.447998 15.1078C0.666998 15.6748 0.958007 16.1558 1.43201 16.6348C1.90901 17.1148 2.38499 17.4088 2.94699 17.6298C3.49099 17.8418 4.111 17.9878 5.021 18.0298C5.932 18.0708 6.22401 18.0818 8.54501 18.0818C10.865 18.0818 11.155 18.0718 12.067 18.0298C12.977 17.9878 13.599 17.8418 14.142 17.6298C14.703 17.4088 15.179 17.1148 15.656 16.6348C16.13 16.1548 16.423 15.6748 16.641 15.1078C16.852 14.5598 16.997 13.9327 17.038 13.0157C17.08 12.0967 17.09 11.8028 17.09 9.46277C17.09 7.12177 17.08 6.82775 17.038 5.90875C16.998 4.99175 16.852 4.36477 16.641 3.81577C16.423 3.24977 16.13 2.76876 15.656 2.28976C15.179 1.80976 14.703 1.51577 14.142 1.29477C13.599 1.08277 12.977 0.936745 12.067 0.894745C11.156 0.853745 10.864 0.84375 8.54501 0.84375Z" fill="#253B54"/>
</svg>
