<svg width="17" height="15" viewBox="0 0 17 15" fill="none" xmlns="http://www.w3.org/2000/svg">
<path fill-rule="evenodd" clip-rule="evenodd" d="M16.9992 1.69181C16.3742 1.97778 15.7011 2.17257 14.9957 2.2596C15.7169 1.81365 16.2697 1.10659 16.53 0.264421C15.8553 0.677215 15.1101 0.977272 14.3144 1.13891C13.6794 0.437656 12.7726 0 11.7688 0C9.84407 0 8.28158 1.61555 8.28158 3.60741C8.28158 3.89006 8.31226 4.16442 8.37277 4.42802C5.47327 4.27798 2.90448 2.84315 1.18285 0.658155C0.882785 1.1928 0.712036 1.81365 0.712036 2.47346C0.712036 3.7251 1.32708 4.82838 2.26208 5.47576C1.6918 5.45835 1.15383 5.29506 0.681352 5.02566V5.07041C0.681352 6.81857 1.88493 8.27827 3.48057 8.60734C3.18797 8.69189 2.88044 8.73418 2.56131 8.73418C2.33751 8.73418 2.11786 8.71263 1.90566 8.66952C2.34912 10.1019 3.63641 11.1463 5.16325 11.1736C3.96963 12.1418 2.46515 12.7187 0.831383 12.7187C0.550385 12.7187 0.271881 12.7021 0 12.669C1.54342 13.691 3.37697 14.2887 5.34644 14.2887C11.7622 14.2887 15.2692 8.79301 15.2692 4.02598C15.2692 3.86849 15.2659 3.71266 15.2593 3.55849C15.9415 3.04954 16.5333 2.41461 17 1.69181" fill="#253B54"/>
</svg>
