<svg width="13" height="17" viewBox="0 0 13 17" fill="none" xmlns="http://www.w3.org/2000/svg">
<path fill-rule="evenodd" clip-rule="evenodd" d="M7.725 12.152C6.693 12.152 5.722 11.589 5.389 10.949C5.389 10.949 4.834 13.173 4.716 13.603C4.302 15.12 3.085 16.64 2.992 16.764C2.925 16.851 2.779 16.824 2.764 16.708C2.737 16.516 2.427 14.601 2.792 13.038L4.022 7.77502C4.022 7.77502 3.716 7.15802 3.716 6.24702C3.716 4.81502 4.539 3.74702 5.561 3.74702C6.431 3.74702 6.849 4.40602 6.849 5.19702C6.849 6.08002 6.293 7.40102 6.007 8.62402C5.766 9.64902 6.514 10.485 7.515 10.485C9.325 10.485 10.546 8.13502 10.546 5.34902C10.546 3.23302 9.135 1.64802 6.568 1.64802C3.668 1.64802 1.862 3.83302 1.862 6.27402C1.862 7.11602 2.108 7.70902 2.493 8.16802C2.669 8.37902 2.693 8.46402 2.63 8.70602C2.583 8.88402 2.479 9.31202 2.434 9.48202C2.372 9.72702 2.174 9.81402 1.956 9.72302C0.621 9.17302 0 7.69402 0 6.03302C0 3.28902 2.288 -0.000976562 6.83 -0.000976562C10.48 -0.000976562 12.882 2.66702 12.882 5.53202C12.882 9.32202 10.797 12.152 7.725 12.152Z" fill="#253B54"/>
</svg>
