<svg width="17" height="19" viewBox="0 0 17 19" fill="none" xmlns="http://www.w3.org/2000/svg">
<path d="M15.41 0.84375H1.59C0.712996 0.84375 0 1.56675 0 2.45575V16.4698C0 17.3598 0.712996 18.0818 1.59 18.0818H15.41C16.287 18.0818 17 17.3588 17 16.4698V2.45575C17 1.56575 16.287 0.84375 15.41 0.84375ZM5.608 14.1537C5.008 14.1477 4.403 14.1477 3.798 14.1537C3.684 14.1537 3.65201 14.1228 3.65201 14.0008V7.51477C3.65201 7.39377 3.68999 7.36176 3.80399 7.36176C4.40299 7.36776 5.009 7.36776 5.608 7.36176C5.728 7.36176 5.75899 7.39977 5.75299 7.51477V10.7648C5.75299 11.8448 5.753 12.9268 5.759 14.0078C5.759 14.1228 5.721 14.1548 5.608 14.1548V14.1537ZM4.70599 6.49176C4.03699 6.49776 3.48801 5.92874 3.48801 5.25674C3.49501 4.61074 3.98001 4.02877 4.70001 4.02277C5.38001 4.01577 5.923 4.54074 5.923 5.25674C5.923 5.96074 5.39299 6.48576 4.70599 6.49176ZM13.322 14.1548H11.55C11.405 14.1548 11.399 14.1478 11.399 13.9948V10.7068C11.399 10.3998 11.392 10.0927 11.304 9.79175C11.165 9.32475 10.869 9.10174 10.383 9.08875C10.043 9.08175 9.72099 9.14576 9.48099 9.41476C9.28499 9.62576 9.20301 9.88175 9.16501 10.1628C9.14001 10.4128 9.121 10.6687 9.121 10.9247C9.115 11.9547 9.115 12.9847 9.121 14.0067C9.121 14.1227 9.09 14.1548 8.983 14.1548C8.377 14.1478 7.765 14.1478 7.16 14.1548C7.052 14.1548 7.01501 14.1228 7.01501 14.0078C7.02101 11.8458 7.02101 9.67775 7.01501 7.50775C7.01501 7.39375 7.059 7.36176 7.16 7.36176C7.74 7.36776 8.31999 7.36776 8.89999 7.36176C9.01399 7.36176 9.05199 7.40677 9.04599 7.51477C9.03899 7.75177 9.04599 7.99475 9.04599 8.23175C9.37399 7.73875 9.816 7.42576 10.37 7.28476C11.014 7.12476 11.65 7.17576 12.256 7.44476C12.843 7.70076 13.158 8.18675 13.323 8.78775C13.436 9.17775 13.487 9.58075 13.493 9.99075L13.512 13.9688C13.512 14.1547 13.512 14.1548 13.322 14.1548Z" fill="#253B54"/>
</svg>
