<svg width="50" height="30" viewBox="0 0 50 30" fill="none" xmlns="http://www.w3.org/2000/svg">
<path d="M44.5336 8.68516C44.8467 8.03431 44.3378 7.28858 43.6176 7.34287L27.413 8.5642C26.6928 8.61849 26.3014 9.43206 26.7085 10.0286L30.0534 14.9302C30.3272 15.3314 30.8553 15.4687 31.2898 15.2516L37.887 11.9559C38.1312 11.8339 38.3516 12.1569 38.149 12.3398L32.6751 17.2816C32.3145 17.6071 32.2499 18.1489 32.5237 18.5501L35.8685 23.4516C36.2757 24.0482 37.1759 23.9803 37.489 23.3295L44.5336 8.68516Z" fill="#3063FF"/>
<path d="M30.3281 18.3773C30.5364 18.1961 30.5585 17.8803 30.3773 17.6719C30.1961 17.4635 29.8803 17.4415 29.6719 17.6227L30.3281 18.3773ZM12.5 23.5L12.1464 23.8536L12.1715 23.8787L12.2 23.9L12.5 23.5ZM1.0879 28.0078C0.816053 27.9592 0.55633 28.1403 0.507786 28.4121C0.459243 28.6839 0.640262 28.9437 0.912105 28.9922L1.0879 28.0078ZM0.912105 28.9922C1.25585 29.0536 1.59277 29.1076 1.92297 29.1546L2.06369 28.1645C1.74551 28.1193 1.42029 28.0671 1.0879 28.0078L0.912105 28.9922ZM2.93615 29.2788C3.64846 29.3518 4.32735 29.3903 4.974 29.3973L4.98491 28.3974C4.37028 28.3907 3.72181 28.3541 3.03812 28.284L2.93615 29.2788ZM5.99856 29.3815C6.72557 29.3505 7.40808 29.2774 8.04797 29.1673L7.87854 28.1818C7.28278 28.2842 6.64269 28.3531 5.95585 28.3825L5.99856 29.3815ZM9.06264 28.9539C9.77782 28.7745 10.4322 28.5457 11.0289 28.2767L10.618 27.365C10.0774 27.6087 9.47934 27.8184 8.8193 27.984L9.06264 28.9539ZM11.9657 27.7956C12.6109 27.4204 13.1727 26.995 13.6571 26.5367L12.9699 25.8103C12.5417 26.2153 12.0418 26.5945 11.463 26.9312L11.9657 27.7956ZM14.3797 25.763C14.8569 25.1829 15.2284 24.5716 15.5054 23.9593L14.5943 23.5471C14.3526 24.0813 14.0274 24.6172 13.6074 25.1277L14.3797 25.763ZM15.8773 22.9576C16.0969 22.2079 16.1822 21.4768 16.1504 20.8215L15.1516 20.87C15.1776 21.4059 15.1083 22.0256 14.9176 22.6765L15.8773 22.9576ZM15.9622 19.7106C15.8327 19.2984 15.6331 18.9261 15.3535 18.6464L14.6464 19.3536C14.7828 19.4899 14.9127 19.7066 15.0082 20.0104L15.9622 19.7106ZM15.3535 18.6464C15.0676 18.3605 14.747 18.1586 14.4067 18.0396L14.0766 18.9836C14.2661 19.0499 14.4599 19.167 14.6464 19.3536L15.3535 18.6464ZM13.2641 17.9439C12.546 18.0628 11.8962 18.4993 11.4531 19.1045L12.26 19.6952C12.5696 19.2723 13.0005 19.0011 13.4274 18.9304L13.2641 17.9439ZM10.9736 20.0629C10.7795 20.6985 10.7741 21.4223 11.036 22.1608L11.9785 21.8265C11.7891 21.2925 11.7976 20.7883 11.93 20.3549L10.9736 20.0629ZM11.5037 23.0793C11.6805 23.3423 11.894 23.6012 12.1464 23.8536L12.8535 23.1464C12.6435 22.9365 12.4719 22.727 12.3334 22.5212L11.5037 23.0793ZM12.2 23.9C12.4755 24.1067 12.7635 24.2852 13.0621 24.4372L13.5158 23.546C13.2678 23.4198 13.0289 23.2717 12.8 23.1L12.2 23.9ZM13.9983 24.8187C14.6274 25.0169 15.2869 25.1173 15.963 25.1379L15.9935 24.1383C15.3961 24.1201 14.8288 24.0319 14.2987 23.8649L13.9983 24.8187ZM16.9447 25.1145C17.5738 25.0674 18.2144 24.9609 18.8578 24.8071L18.6254 23.8345C18.0256 23.9778 17.4382 24.0748 16.8699 24.1173L16.9447 25.1145ZM19.7849 24.5546C20.3839 24.3721 20.9841 24.1531 21.5791 23.9065L21.1962 22.9827C20.6273 23.2186 20.0577 23.4261 19.4935 23.598L19.7849 24.5546ZM22.4494 23.525C23.0215 23.2608 23.5869 22.974 24.1396 22.6722L23.6604 21.7945C23.1253 22.0866 22.58 22.3632 22.0302 22.6171L22.4494 23.525ZM24.9619 22.2074C25.5135 21.885 26.0495 21.5506 26.5638 21.2122L26.0142 20.3768C25.5136 20.7062 24.9925 21.0312 24.4573 21.3441L24.9619 22.2074ZM27.3457 20.6837C27.8853 20.3092 28.3952 19.9345 28.8674 19.5703L28.2567 18.7785C27.7974 19.1327 27.301 19.4974 26.7755 19.8623L27.3457 20.6837ZM29.6059 18.9849C29.862 18.776 30.1033 18.5727 30.3281 18.3773L29.6719 17.6227C29.4554 17.8109 29.2222 18.0074 28.9739 18.2099L29.6059 18.9849Z" fill="#F94550"/>
</svg>
