<svg width="284" height="129" viewBox="0 0 284 129" fill="none" xmlns="http://www.w3.org/2000/svg">
<g clip-path="url(#clip0_724_16002)">
<path d="M32.9776 74.5102L27.9862 67.5223H23.5394V74.5102H20V54.3631H28.9845C33.6129 54.3631 36.517 56.8135 36.517 60.7158C36.5697 62.146 36.1163 63.549 35.2365 64.6778C34.3567 65.8066 33.1069 66.5889 31.7071 66.887L37.1523 74.5102H32.9776ZM28.7123 57.5395H23.5394V64.3459H28.7123C31.2533 64.3459 32.8869 63.0754 32.8869 60.9881C32.8869 58.81 31.2533 57.6302 28.7123 57.6302V57.5395ZM50.1299 74.8733C48.7528 74.9099 47.3824 74.6687 46.1006 74.164C44.8187 73.6594 43.6517 72.9016 42.6691 71.936C41.6866 70.9704 40.9087 69.8167 40.3818 68.5439C39.8549 67.271 39.5899 65.905 39.6026 64.5274C39.5776 63.1304 39.8358 61.7428 40.3618 60.4482C40.8877 59.1537 41.6704 57.9792 42.6626 56.9954C43.6549 56.0116 44.8361 55.239 46.1351 54.7242C47.4341 54.2095 48.8239 53.9631 50.2207 54.0001C51.6055 53.9631 52.9835 54.2071 54.2715 54.7173C55.5595 55.2275 56.7307 55.9934 57.7146 56.9688C58.6984 57.9441 59.4744 59.1087 59.9958 60.3922C60.5171 61.6757 60.773 63.0516 60.748 64.4367C60.7603 65.8183 60.4958 67.1885 59.9699 68.4662C59.4441 69.744 58.6677 70.9035 57.6864 71.8762C56.7052 72.849 55.539 73.6154 54.2568 74.1301C52.9745 74.6449 51.6022 74.8975 50.2207 74.8733H50.1299ZM50.2207 57.2672C46.2275 57.2672 43.4142 60.4436 43.4142 64.4367C43.3775 65.3651 43.5288 66.2913 43.859 67.1598C44.1891 68.0283 44.6914 68.8211 45.3355 69.4907C45.9797 70.1603 46.7525 70.6928 47.6075 71.0564C48.4626 71.4199 49.3823 71.6069 50.3114 71.6062C54.3045 71.6062 57.1179 68.4298 57.1179 64.4367C57.1546 63.5083 57.0033 62.582 56.6731 61.7136C56.343 60.8451 55.8407 60.0522 55.1966 59.3827C54.5524 58.7131 53.7796 58.1805 52.9246 57.817C52.0695 57.4535 51.1498 57.2665 50.2207 57.2672" fill="#06060B"/>
<path d="M78.1726 54.3629L72.1829 69.7909L66.0117 54.3629H62.1094L70.5494 74.6915H73.5442L81.9842 54.3629H78.1726ZM85.4328 54.3629V74.51H100.498V71.3337H88.8814V65.8885H99.0457V62.8937H88.8814V57.5393H100.316V54.3629H85.4328Z" fill="#06060B"/>
<path d="M113.657 74.8731C107.94 74.8731 103.675 70.3355 103.675 64.5273V64.4366C103.638 63.0866 103.871 61.743 104.36 60.4842C104.849 59.2254 105.584 58.0766 106.522 57.105C107.46 56.1334 108.582 55.3584 109.823 54.8252C111.063 54.2921 112.398 54.0116 113.748 54C115.203 53.9806 116.647 54.2606 117.99 54.8226C119.333 55.3846 120.545 56.2167 121.553 57.2671L120.555 58.3561C119.689 57.4135 118.637 56.6607 117.465 56.1452C116.294 55.6297 115.028 55.3628 113.748 55.3613C108.847 55.3613 105.217 59.2637 105.217 64.3458C105.217 69.428 108.938 73.4211 113.748 73.4211C116.652 73.4211 118.649 72.2413 120.736 70.2447L121.644 71.1523C120.648 72.2914 119.42 73.2046 118.043 73.8307C116.666 74.4567 115.17 74.7812 113.657 74.7824V74.8731ZM134.53 74.7824C128.45 74.7824 124.366 69.8817 124.366 64.3458C124.342 62.9958 124.587 61.6546 125.087 60.4003C125.587 59.1461 126.332 58.0041 127.278 57.0409C128.225 56.0778 129.353 55.3128 130.598 54.7907C131.844 54.2686 133.18 53.9998 134.53 54C135.888 53.9744 137.236 54.2259 138.493 54.7391C139.75 55.2524 140.888 56.0165 141.84 56.9849C142.791 57.9532 143.535 59.1055 144.026 60.3711C144.517 61.6367 144.744 62.9892 144.695 64.3458C144.744 65.7108 144.517 67.0717 144.028 68.3471C143.539 69.6225 142.798 70.7863 141.849 71.7689C140.9 72.7515 139.763 73.5329 138.506 74.0662C137.248 74.5996 135.896 74.874 134.53 74.8731V74.7824ZM143.152 64.4366C143.152 59.4452 139.522 55.3613 134.53 55.3613C129.539 55.3613 126 59.3544 126 64.4366C126 69.428 129.63 73.5118 134.621 73.5118C139.613 73.5118 143.152 69.428 143.152 64.4366Z" fill="#06060B"/>
<path d="M165.204 54.3629V71.8782L151.137 54.3629H149.776V74.51H151.228V56.6317L165.385 74.51H166.474V54.3629H165.204Z" fill="#06060B"/>
<path d="M181.812 74.873C176.004 74.873 171.829 70.3353 171.829 64.5271V64.4364C171.793 63.094 172.023 61.7578 172.507 60.5048C172.99 59.2519 173.717 58.1072 174.645 57.1368C175.573 56.1664 176.684 55.3895 177.915 54.8511C179.145 54.3126 180.47 54.0233 181.812 53.9998C183.283 53.9678 184.744 54.2417 186.103 54.8041C187.462 55.3665 188.69 56.2052 189.708 57.2669L188.619 58.356C187.753 57.4133 186.701 56.6605 185.529 56.145C184.358 55.6295 183.092 55.3626 181.812 55.3611C177.002 55.3611 173.372 59.2635 173.372 64.3456C173.372 69.4278 177.093 73.4209 181.903 73.4209C184.807 73.4209 186.804 72.2411 188.891 70.2446L189.889 71.1521C188.893 72.2912 187.666 73.2044 186.288 73.8305C184.911 74.4565 183.416 74.781 181.903 74.7822" fill="#06060B"/>
<path d="M193.973 54.3629V74.51H208.494L208.584 73.1487H195.516V64.981H207.132V63.6197H195.516V55.815H208.403V54.3629H193.973Z" fill="#06060B"/>
<path d="M219.838 66.9775H214.392V74.51H212.85V54.3629H220.201C224.647 54.3629 227.733 56.6317 227.733 60.5341C227.733 64.7995 224.103 66.9775 219.838 66.9775V66.9775ZM226.19 60.6249C226.19 57.4485 223.649 55.815 220.019 55.815H214.211V65.7978H219.656C223.468 65.7978 226.009 63.8012 226.009 60.8064L226.19 60.6249Z" fill="#06060B"/>
<path d="M230.274 54.3629V55.7242H237.262V74.51H238.805V55.7242H245.793V54.3629H230.274Z" fill="#06060B"/>
<path d="M256.502 74.873C253.454 74.9067 250.518 73.732 248.334 71.6059L249.423 70.4262C250.361 71.3989 251.491 72.1672 252.74 72.6826C253.989 73.1979 255.332 73.4494 256.683 73.421C259.678 73.421 261.765 71.7874 261.765 69.4279C261.765 67.2498 260.586 66.07 256.048 65.0717C251.147 64.1642 249.242 62.4399 249.242 59.4451V59.3543C249.242 56.3595 251.964 54.0907 255.685 54.0907C258.242 53.9813 260.744 54.8585 262.673 56.541L261.765 57.7208C260.129 56.2314 257.988 55.4203 255.776 55.4519C252.781 55.4519 250.875 57.0855 250.875 59.2636C250.875 61.4416 251.964 62.7122 256.774 63.8012C261.402 64.7087 263.399 66.3423 263.399 69.3371V69.4279C263.399 72.695 260.586 74.9638 256.683 74.9638" fill="#06060B"/>
</g>
<defs>
<clipPath id="clip0_724_16002">
<rect width="243.217" height="20.8731" fill="white" transform="translate(20 54)"/>
</clipPath>
</defs>
</svg>
