<svg width="260" height="165" viewBox="0 0 260 165" fill="none" xmlns="http://www.w3.org/2000/svg">
<rect width="260" height="165" fill="white"/>
<g style="mix-blend-mode:multiply">
<path d="M27.0078 126.214C27.0044 112.686 29.6663 99.2906 34.8414 86.7919C40.0164 74.2933 47.6033 62.9367 57.1685 53.3709C66.7337 43.8051 78.0898 36.2175 90.5881 31.0417C103.086 25.8659 116.482 23.2032 130.01 23.2057C143.536 23.2057 156.929 25.8703 169.425 31.0472C181.922 36.2242 193.275 43.8121 202.839 53.3777C212.402 62.9432 219.987 74.299 225.161 86.7964C230.334 99.2938 232.996 112.688 232.992 126.214H27.0078Z" fill="#FFF6F2"/>
<path d="M27.0078 126.214C27.0044 112.686 29.6663 99.2906 34.8414 86.7919C40.0164 74.2933 47.6033 62.9367 57.1685 53.3709C66.7337 43.8051 78.0898 36.2175 90.5881 31.0417C103.086 25.8659 116.482 23.2032 130.01 23.2057C143.536 23.2057 156.929 25.8703 169.425 31.0472C181.922 36.2242 193.275 43.8121 202.839 53.3777C212.402 62.9432 219.987 74.299 225.161 86.7964C230.334 99.2938 232.996 112.688 232.992 126.214H27.0078Z" fill="url(#paint0_linear_622_7164)" fill-opacity="0.2"/>
</g>
<path d="M144.069 89.5014L82.148 89.4068L66.5732 93.7254L128.867 93.4416L144.069 89.5014Z" fill="#F69A8E"/>
<path d="M63.8021 93.9203L81.9254 88.9895H138.788H148.042" fill="#F69A8E"/>
<path d="M128.828 93.9362H64.1248V149.247H128.828V93.9362Z" fill="#F7C1B3"/>
<path d="M128.338 94.4259V148.757H64.6145V94.4259H128.338ZM129.312 93.4521H63.6518V149.731H129.312V93.4521Z" fill="#011631"/>
<path d="M147.547 139.214L128.811 149.508V93.9752L147.547 89.1286V139.214Z" fill="#F69A8E"/>
<path fill-rule="evenodd" clip-rule="evenodd" d="M148.033 88.4997V139.502L128.324 150.331V93.5982L148.033 88.4997ZM129.298 94.3521V148.685L147.06 138.926V89.7574L129.298 94.3521Z" fill="#011631"/>
<path fill-rule="evenodd" clip-rule="evenodd" d="M81.8603 88.5026H148.042V89.4765H81.9904L63.9298 94.3903L63.6742 93.4505L81.8603 88.5026Z" fill="#011631"/>
<path d="M106.615 93.9474H88.4691V123.033H106.615V93.9474Z" fill="#F8F47B"/>
<path fill-rule="evenodd" clip-rule="evenodd" d="M87.9822 93.4604H107.102V123.519H87.9822V93.4604ZM88.956 94.4342V122.546H106.128V94.4342H88.956Z" fill="#011631"/>
<path d="M88.8531 93.9203L102.909 88.9283L118.601 88.9784L106.342 93.9203H88.8531Z" fill="#F8F47B"/>
<path d="M102.992 89.4181L116.113 89.4626L106.247 93.4418H91.6798L102.992 89.4181ZM102.825 88.4442L86.0486 94.4268H106.453L121.105 88.4998L102.842 88.4386L102.825 88.4442Z" fill="#011631"/>
<path d="M104.055 56.6817C111.301 40.9273 101.69 15.7593 101.69 15.7593C101.69 15.7593 93.4999 39.6691 97.5107 55.4684C98.2241 58.2767 102.229 60.6526 104.055 56.6817Z" fill="#F69A8E"/>
<path d="M116.818 57.0804C124.064 41.326 114.453 16.1581 114.453 16.1581C114.453 16.1581 106.263 40.0678 110.274 55.8672C110.987 58.6754 114.986 61.0513 116.818 57.0804Z" fill="#F69A8E"/>
<path d="M105.892 58.1363C102.016 36.2317 109.178 7.07617 109.178 7.07617C109.178 7.07617 114.295 23.0835 112.357 56.7266L105.892 58.1363Z" fill="#FBC5B7"/>
<path d="M116.508 58.1588C113.453 36.1251 121.693 7.25037 121.693 7.25037C121.693 7.25037 126.187 23.443 123.019 56.985L116.508 58.1588Z" fill="#F7C1B3"/>
<path d="M97.1736 62.0061C90.2867 44.9992 93.2414 20.0729 93.2414 20.0729C93.2414 20.0729 100.544 32.0756 103.353 59.6641L97.1736 62.0061Z" fill="#F7C1B3"/>
<path d="M108.004 91.5661C88.5958 90.5326 89.9551 72.7338 90.3708 58.2768C88.8934 55.3225 123.761 57.6421 124.306 56.9456C124.659 56.9456 124.997 57.086 125.247 57.3356C125.497 57.5852 125.637 57.9238 125.637 58.2768V73.9357C125.637 76.2509 125.181 78.5437 124.295 80.6827C123.408 82.8217 122.109 84.7652 120.472 86.4023C118.835 88.0395 116.891 89.3379 114.752 90.2239C112.612 91.1099 110.319 91.5661 108.004 91.5661Z" fill="#F7C1B3"/>
<g style="mix-blend-mode:luminosity" opacity="0.3">
<path d="M109.65 91.566H106.358C98.5273 90.6617 91.5674 84.9216 90.3709 75.5813V58.17C90.3709 57.8498 90.4982 57.5425 90.7247 57.316C90.9512 57.0896 91.2583 56.9625 91.5786 56.9625C91.5786 56.9625 91.6965 71.3802 96.4601 80.1083C100.679 87.8254 109.65 91.566 109.65 91.566Z" fill="#011631"/>
</g>
<path d="M127.889 54.0811H88.124C86.8861 54.0811 85.8826 55.0845 85.8826 56.3224V57.6987C85.8826 58.9365 86.8861 59.94 88.124 59.94H127.889C129.127 59.94 130.131 58.9365 130.131 57.6987V56.3224C130.131 55.0845 129.127 54.0811 127.889 54.0811Z" fill="#F69A8E"/>
<path d="M165.783 156.005C164.189 156.005 162.659 156.005 161.219 155.902L161.283 154.616C177.053 155.362 197.599 152.302 201.476 147.12C201.761 146.778 201.952 146.368 202.031 145.929C202.11 145.491 202.074 145.04 201.926 144.62C199.869 138.679 178.249 139.007 170.09 139.631L169.994 138.345C175.098 138.001 180.216 137.938 185.327 138.159C195.96 138.692 201.964 140.73 203.167 144.208C203.391 144.83 203.45 145.5 203.338 146.151C203.225 146.803 202.944 147.414 202.524 147.924C198.371 153.433 179.656 156.005 165.783 156.005Z" fill="#F94550"/>
<path d="M186.394 59.0847H185.738V71.2865H186.394V59.0847Z" fill="#D6384B"/>
<path d="M186.085 77.5813C187.868 77.5813 189.313 76.1361 189.313 74.3535C189.313 72.5709 187.868 71.1258 186.085 71.1258C184.303 71.1258 182.858 72.5709 182.858 74.3535C182.858 76.1361 184.303 77.5813 186.085 77.5813Z" fill="#D9D35D"/>
<path d="M190.296 140.062C190.297 141.543 189.766 142.976 188.8 144.099C187.834 145.223 186.496 145.961 185.031 146.182C179.419 147.146 173.74 147.672 168.046 147.757C162.436 147.688 156.838 147.205 151.299 146.31C149.86 146.063 148.555 145.315 147.614 144.199C146.673 143.083 146.156 141.67 146.156 140.209V99.7981C146.156 96.8984 146.727 94.0272 147.837 91.3483C148.947 88.6695 150.574 86.2355 152.625 84.1854C154.675 82.1354 157.11 80.5094 159.789 79.4003C162.468 78.2912 165.339 77.7208 168.239 77.7217C171.138 77.7217 174.009 78.2927 176.687 79.4022C179.366 80.5116 181.799 82.1377 183.849 84.1877C185.899 86.2377 187.526 88.6714 188.635 91.3498C189.744 94.0283 190.316 96.899 190.316 99.7981L190.296 140.062Z" fill="#F94550"/>
<g style="mix-blend-mode:luminosity" opacity="0.3">
<path d="M167.873 147.757C162.251 147.69 156.643 147.206 151.093 146.31C149.654 146.063 148.349 145.315 147.408 144.199C146.467 143.083 145.951 141.67 145.95 140.209V99.7981C145.95 99.7981 146.979 126.799 152.546 134.514C160.602 145.648 167.873 147.757 167.873 147.757Z" fill="#011631"/>
</g>
<path d="M171.736 44.247H163.392V83.5976H171.736V44.247Z" fill="#F94550"/>
<path d="M206.749 6.7608H130.131V58.3646C130.131 59.4318 147.283 60.2932 168.44 60.2932C189.597 60.2932 206.749 59.4254 206.749 58.3646V6.7608Z" fill="#F7C1B3"/>
<path d="M168.286 8.69645C189.273 8.69645 206.286 7.82997 206.286 6.7611C206.286 5.69223 189.273 4.82574 168.286 4.82574C147.299 4.82574 130.285 5.69223 130.285 6.7611C130.285 7.82997 147.299 8.69645 168.286 8.69645Z" fill="#F69A8E"/>
<path d="M152.228 159.59L151.833 151.332C151.826 151.185 151.877 151.042 151.976 150.933C152.075 150.825 152.212 150.76 152.359 150.753L158.665 150.451C159.33 150.419 159.982 150.653 160.475 151.102C160.969 151.55 161.264 152.176 161.295 152.842L161.505 157.215C161.537 157.881 161.303 158.532 160.854 159.025C160.406 159.519 159.78 159.814 159.114 159.846L152.808 160.148C152.733 160.151 152.658 160.14 152.587 160.113C152.516 160.087 152.452 160.046 152.398 159.994C152.343 159.942 152.3 159.879 152.271 159.809C152.242 159.74 152.227 159.665 152.228 159.59Z" fill="#F8F47B"/>
<path d="M152.101 156.968L147.561 157.185L147.623 158.495L152.163 158.278L152.101 156.968Z" fill="#D6384B"/>
<path d="M151.895 152.669L147.355 152.886L147.418 154.196L151.958 153.979L151.895 152.669Z" fill="#D6384B"/>
<defs>
<linearGradient id="paint0_linear_622_7164" x1="130" y1="23.2057" x2="130" y2="126.214" gradientUnits="userSpaceOnUse">
<stop stop-color="#D6384B" stop-opacity="0"/>
<stop offset="1" stop-color="#D6384B"/>
</linearGradient>
</defs>
</svg>
