<svg width="260" height="165" viewBox="0 0 260 165" fill="none" xmlns="http://www.w3.org/2000/svg">
<rect width="260" height="165" fill="white"/>
<path d="M27.424 124.535C27.4239 111.009 30.0883 97.6164 35.2648 85.1207C40.4414 72.625 48.0288 61.2715 57.5937 51.7084C67.1586 42.1453 78.5135 34.5601 91.0102 29.3859C103.507 24.2116 116.9 21.5498 130.426 21.5523C143.95 21.5523 157.341 24.216 169.836 29.3914C182.33 34.5667 193.683 42.1524 203.246 51.7152C212.808 61.278 220.394 72.6308 225.569 85.1252C230.745 97.6196 233.408 111.011 233.408 124.535H27.424Z" fill="#EAEFFF"/>
<path d="M27.424 124.535C27.4239 111.009 30.0883 97.6164 35.2648 85.1207C40.4414 72.625 48.0288 61.2715 57.5937 51.7084C67.1586 42.1453 78.5135 34.5601 91.0102 29.3859C103.507 24.2116 116.9 21.5498 130.426 21.5523C143.95 21.5523 157.341 24.216 169.836 29.3914C182.33 34.5667 193.683 42.1524 203.246 51.7152C212.808 61.278 220.394 72.6308 225.569 85.1252C230.745 97.6196 233.408 111.011 233.408 124.535H27.424Z" fill="url(#paint0_linear_622_7202)" fill-opacity="0.2"/>
<path d="M74.5084 90.4913H44.441V113.918H74.5084V90.4913Z" fill="white"/>
<path d="M74.5084 114.22H44.441C44.4003 114.221 44.3597 114.213 44.3219 114.198C44.2841 114.183 44.2497 114.16 44.2208 114.132C44.192 114.103 44.1693 114.068 44.1541 114.03C44.1389 113.993 44.1315 113.952 44.1324 113.911V90.4913C44.1324 90.4095 44.1649 90.331 44.2228 90.2731C44.2807 90.2153 44.3592 90.1827 44.441 90.1827H74.5084C74.5897 90.1844 74.6673 90.2174 74.7248 90.2749C74.7823 90.3325 74.8154 90.41 74.817 90.4913V113.911C74.817 113.993 74.7845 114.072 74.7266 114.13C74.6687 114.187 74.5902 114.22 74.5084 114.22V114.22ZM44.7496 113.609H74.1998V90.7999H44.7496V113.609Z" fill="#011631"/>
<path d="M74.5084 90.4918H44.441L52.5734 87.6177H81.0593L74.5084 90.4918Z" fill="white"/>
<path d="M74.5084 90.8004H44.4411C44.3684 90.8017 44.2974 90.7772 44.241 90.7313C44.1845 90.6854 44.1461 90.6211 44.1324 90.5496C44.1207 90.4768 44.1349 90.4022 44.1725 90.3387C44.2101 90.2753 44.2687 90.227 44.3382 90.2024L52.4771 87.3283C52.5089 87.3222 52.5416 87.3222 52.5734 87.3283H81.0594C81.1298 87.3294 81.1978 87.354 81.2526 87.3983C81.3074 87.4426 81.3457 87.504 81.3615 87.5726C81.375 87.6423 81.3646 87.7145 81.3319 87.7776C81.2993 87.8406 81.2462 87.8907 81.1815 87.9198L74.6306 90.7939C74.591 90.8056 74.5491 90.8078 74.5084 90.8004ZM46.2218 90.1574H74.4313L79.5743 87.9005H52.6185L46.2218 90.1574Z" fill="#011631"/>
<path d="M80.9565 109.958L74.5277 113.931V90.5042L81.0787 87.6305L80.9565 109.958Z" fill="white"/>
<path d="M74.5084 114.22C74.4565 114.22 74.4056 114.207 74.3605 114.181C74.3111 114.156 74.2697 114.117 74.2413 114.069C74.2129 114.022 74.1985 113.967 74.1998 113.911V90.4913C74.1995 90.4318 74.2171 90.3736 74.2503 90.3243C74.2836 90.275 74.331 90.2369 74.3862 90.2149L80.9307 87.3348C80.9759 87.3095 81.0268 87.2961 81.0786 87.2961C81.1304 87.2961 81.1813 87.3095 81.2265 87.3348C81.27 87.3621 81.3057 87.4001 81.3305 87.4451C81.3552 87.49 81.3681 87.5406 81.3679 87.5919L81.265 109.919C81.2657 109.972 81.2524 110.024 81.2264 110.071C81.2004 110.117 81.1628 110.156 81.1172 110.183L74.6884 114.149C74.6383 114.193 74.5747 114.218 74.5084 114.22ZM74.817 90.697V113.365L80.6543 109.771L80.7443 88.087L74.817 90.697Z" fill="#011631"/>
<path d="M63.5923 90.4913H55.3571V102.205H63.5923V90.4913Z" fill="#F8F47B"/>
<path d="M63.5924 102.513H55.3572C55.2753 102.513 55.1968 102.481 55.1389 102.423C55.081 102.365 55.0486 102.286 55.0486 102.205V90.4913C55.0486 90.4095 55.081 90.331 55.1389 90.2731C55.1968 90.2153 55.2753 90.1827 55.3572 90.1827H63.5924C63.6742 90.1827 63.7528 90.2153 63.8106 90.2731C63.8685 90.331 63.901 90.4095 63.901 90.4913V102.205C63.901 102.286 63.8685 102.365 63.8106 102.423C63.7528 102.481 63.6742 102.513 63.5924 102.513ZM55.6657 101.87H63.2838V90.7999H55.6657V101.87Z" fill="#011631"/>
<path d="M69.4489 87.6177H61.2137L55.3571 90.4918H63.5923L69.4489 87.6177Z" fill="#B5EAE4"/>
<path d="M63.5923 90.8005H55.3571C55.2869 90.8021 55.2184 90.7792 55.1632 90.7358C55.1081 90.6924 55.0698 90.6311 55.0548 90.5625C55.0404 90.4943 55.0489 90.4232 55.0792 90.3604C55.1094 90.2976 55.1596 90.2466 55.222 90.2153L61.0723 87.3412C61.1166 87.3207 61.1648 87.3097 61.2137 87.3091H69.4489C69.5179 87.309 69.585 87.3325 69.6388 87.3758C69.6926 87.4191 69.73 87.4795 69.7447 87.547C69.7608 87.6145 69.7537 87.6855 69.7246 87.7485C69.6954 87.8115 69.6459 87.8628 69.5839 87.8942L63.7273 90.7683C63.6864 90.7918 63.6394 90.803 63.5923 90.8005V90.8005ZM56.6813 90.1575H63.5216L68.1182 87.9006H61.2779L56.6813 90.1575Z" fill="#011631"/>
<path d="M71.564 74.4193H50.9919V90.3948H71.564V74.4193Z" fill="white"/>
<path d="M71.564 90.7034H50.9919C50.9517 90.7034 50.9118 90.6954 50.8747 90.6798C50.8377 90.6642 50.8041 90.6414 50.7759 90.6126C50.7478 90.5839 50.7257 90.5498 50.7109 90.5124C50.6961 90.475 50.6889 90.435 50.6898 90.3948V74.4193C50.6889 74.3791 50.6961 74.3391 50.7109 74.3017C50.7257 74.2643 50.7478 74.2302 50.7759 74.2015C50.8041 74.1727 50.8377 74.1499 50.8747 74.1343C50.9118 74.1187 50.9517 74.1107 50.9919 74.1107H71.564C71.6458 74.1107 71.7243 74.1432 71.7822 74.2011C71.84 74.259 71.8726 74.3375 71.8726 74.4193V90.3948C71.8726 90.4354 71.8646 90.4755 71.8491 90.5129C71.8336 90.5504 71.8108 90.5844 71.7822 90.613C71.7535 90.6417 71.7195 90.6644 71.6821 90.6799C71.6447 90.6954 71.6045 90.7034 71.564 90.7034ZM51.3262 90.0605H71.2554V74.7279H51.3262V90.0605Z" fill="#011631"/>
<path d="M71.564 74.4196H50.9919L56.5464 72.4329H75.9999L71.564 74.4196Z" fill="white"/>
<path d="M71.5641 74.7283H50.992C50.9191 74.7291 50.8483 74.7035 50.7928 74.6563C50.7373 74.609 50.7007 74.5432 50.6898 74.4711C50.6767 74.3998 50.6896 74.3262 50.7262 74.2637C50.7627 74.2011 50.8205 74.1538 50.8891 74.1303L56.4436 72.1435C56.4776 72.1374 56.5124 72.1374 56.5464 72.1435H75.9999C76.0707 72.1434 76.1392 72.1677 76.1942 72.2122C76.2492 72.2566 76.2873 72.3187 76.3021 72.3879C76.3168 72.4576 76.3069 72.5303 76.274 72.5936C76.2412 72.6569 76.1875 72.7069 76.122 72.7351L71.6605 74.7219C71.6287 74.7277 71.5963 74.7299 71.5641 74.7283V74.7283ZM52.8048 74.0853H71.4998L74.5791 72.7158H56.6365L52.8048 74.0853Z" fill="#011631"/>
<path d="M75.9163 87.6176L71.5511 90.3949V74.4194L76.0128 72.4329L75.9163 87.6176Z" fill="white"/>
<path d="M71.564 90.7034C71.5122 90.7038 71.4612 90.6904 71.4162 90.6649C71.3667 90.6395 71.3254 90.6007 71.297 90.553C71.2685 90.5052 71.2542 90.4504 71.2555 90.3949V74.4193C71.2558 74.36 71.2728 74.302 71.3047 74.252C71.3365 74.2019 71.3819 74.1619 71.4355 74.1365L75.9356 72.15C75.9808 72.1246 76.0317 72.1113 76.0835 72.1113C76.1353 72.1113 76.1862 72.1246 76.2313 72.15C76.2728 72.1789 76.3067 72.2173 76.3302 72.2621C76.3537 72.3068 76.3661 72.3566 76.3663 72.4071L76.2699 87.5919C76.2684 87.6429 76.2548 87.6929 76.2302 87.7376C76.2056 87.7823 76.1707 87.8205 76.1284 87.8491L71.7633 90.6263C71.7077 90.674 71.6373 90.7012 71.564 90.7034V90.7034ZM71.8726 74.6315V89.8484L75.6206 87.4569L75.717 72.9214L71.8726 74.6315Z" fill="#011631"/>
<path d="M64.1067 74.4193H58.4493V82.4553H64.1067V74.4193Z" fill="#F8F47B"/>
<path d="M64.1067 82.7639H58.4493C58.3675 82.7639 58.289 82.7314 58.2312 82.6735C58.1733 82.6157 58.1407 82.5372 58.1407 82.4553V74.4194C58.1407 74.3375 58.1733 74.259 58.2312 74.2012C58.289 74.1433 58.3675 74.1108 58.4493 74.1108H64.1067C64.1474 74.1099 64.188 74.1173 64.2258 74.1325C64.2636 74.1477 64.298 74.1704 64.3268 74.1992C64.3556 74.2281 64.3783 74.2624 64.3935 74.3002C64.4087 74.3381 64.4161 74.3786 64.4152 74.4194V82.4553C64.4161 82.4961 64.4087 82.5366 64.3935 82.5745C64.3783 82.6123 64.3556 82.6467 64.3268 82.6755C64.298 82.7043 64.2636 82.727 64.2258 82.7422C64.188 82.7574 64.1474 82.7648 64.1067 82.7639V82.7639ZM58.7579 82.1211H63.7981V74.728H58.7579V82.1211Z" fill="#011631"/>
<path d="M68.0796 72.4329H62.4224L58.4493 74.4196H64.1067L68.0796 72.4329Z" fill="#F8F47B"/>
<path d="M64.1067 74.7283H58.4493C58.3806 74.7273 58.3142 74.7033 58.2606 74.6602C58.207 74.6171 58.1694 74.5573 58.1536 74.4904C58.1375 74.4229 58.1445 74.3519 58.1737 74.2889C58.2029 74.2259 58.2524 74.1746 58.3143 74.1432L62.2809 72.1564C62.3253 72.1359 62.3735 72.1249 62.4223 72.1243H68.0796C68.1487 72.1242 68.2157 72.1477 68.2695 72.191C68.3233 72.2343 68.3607 72.2947 68.3754 72.3622C68.3916 72.4297 68.3845 72.5007 68.3553 72.5637C68.3261 72.6267 68.2766 72.678 68.2147 72.7094L64.2481 74.6962C64.2037 74.7167 64.1556 74.7277 64.1067 74.7283V74.7283ZM59.7544 74.0854H64.036L66.7746 72.7158H62.493L59.7544 74.0854Z" fill="#011631"/>
<path d="M235.292 34.8535H122.351V129.022H235.292V34.8535Z" fill="#80A9F8"/>
<path opacity="0.5" d="M122.287 62.3751C122.287 62.3751 131.088 45.3196 159.696 45.3196C138.481 45.3196 122.287 43.9503 122.287 43.9503V62.3751Z" fill="#011631"/>
<path opacity="0.5" d="M235.292 62.3751C235.292 62.3751 226.491 45.3196 197.883 45.3196C219.098 45.3196 235.292 43.9503 235.292 43.9503V62.3751Z" fill="#011631"/>
<path d="M232.984 25.4739C232.984 25.5511 232.984 25.6347 232.907 25.6347H232.264C232.256 25.5729 232.227 25.516 232.181 25.4739C232.181 25.3968 232.264 25.3132 232.264 25.236C232.264 25.1589 232.656 25.0753 232.817 25.236C232.978 25.3968 232.984 25.3968 232.984 25.4739Z" fill="#011631"/>
<path d="M233.164 18.2222H123.232V29.2926H233.164V18.2222Z" fill="#3063FF"/>
<path d="M178.423 74.0369H178.835C183.648 74.0369 188.264 75.949 191.667 79.3525C195.071 82.756 196.983 87.3721 196.983 92.1854V128.945H160.268V92.1854C160.268 89.8015 160.738 87.4411 161.65 85.2388C162.563 83.0365 163.9 81.0355 165.586 79.3502C167.272 77.6649 169.273 76.3282 171.476 75.4166C173.679 74.5049 176.039 74.0361 178.423 74.0369V74.0369Z" fill="#EAEFFF"/>
<path d="M152.039 83.7829H130.587V102.549H152.039V83.7829Z" fill="#EAEFFF"/>
<path d="M226.806 83.7829H205.353V102.549H226.806V83.7829Z" fill="#EAEFFF"/>
<path d="M192.239 103.179C193.435 103.179 194.405 102.209 194.405 101.012C194.405 99.8156 193.435 98.8455 192.239 98.8455C191.042 98.8455 190.072 99.8156 190.072 101.012C190.072 102.209 191.042 103.179 192.239 103.179Z" fill="#3063FF"/>
<path d="M226.375 52.2947C224.437 52.2909 222.531 51.7886 220.843 50.8362C219.154 49.8838 217.738 48.5131 216.732 46.856C215.726 48.5131 214.31 49.8838 212.622 50.8362C210.933 51.7886 209.028 52.2909 207.089 52.2947C205.15 52.2909 203.245 51.7886 201.556 50.8362C199.868 49.8838 198.452 48.5131 197.446 46.856C196.44 48.5131 195.024 49.8838 193.335 50.8362C191.647 51.7886 189.741 52.2909 187.803 52.2947C185.864 52.2909 183.959 51.7886 182.27 50.8362C180.581 49.8838 179.166 48.5131 178.159 46.856C177.153 48.5131 175.738 49.8838 174.049 50.8362C172.36 51.7886 170.455 52.2909 168.516 52.2947C166.578 52.2909 164.672 51.7886 162.984 50.8362C161.295 49.8838 159.879 48.5131 158.873 46.856C157.867 48.5131 156.451 49.8838 154.763 50.8362C153.074 51.7886 151.169 52.2909 149.23 52.2947C147.291 52.2909 145.386 51.7886 143.697 50.8362C142.009 49.8838 140.593 48.5131 139.587 46.856C138.58 48.5131 137.165 49.8838 135.476 50.8362C133.788 51.7886 131.882 52.2909 129.944 52.2947C126.947 52.2913 124.075 51.0995 121.956 48.9808C119.837 46.862 118.645 43.9893 118.642 40.9929V40.7679L123.296 26.9589H233.164L237.831 40.9929C237.83 42.4897 237.531 43.9713 236.953 45.3518C236.375 46.7324 235.529 47.9845 234.463 49.0357C233.397 50.0869 232.134 50.9162 230.746 51.4756C229.357 52.035 227.872 52.3135 226.375 52.2947V52.2947Z" fill="#3063FF"/>
<path d="M36.427 110.048C33.9726 110.052 31.6199 111.05 29.8844 112.822C28.1489 114.594 27.1721 116.996 27.1682 119.502V146.056H93.6765V110.048H36.427Z" fill="#3063FF"/>
<path d="M98.9258 96.431L123.766 97.4113L140.107 124.535H98.9258V96.431Z" fill="white"/>
<path d="M143.29 117.536L131.932 111.224L119.816 90.3846C119.474 89.7994 118.985 89.314 118.397 88.977C117.81 88.6401 117.144 88.4633 116.466 88.4644H89.3152V145.312H145.642L145.791 121.853C145.796 120.976 145.567 120.113 145.127 119.354C144.687 118.595 144.053 117.968 143.29 117.536V117.536ZM118.401 119.992H99.7797V96.5919H123.448L131.754 111.358L131.382 112.088C130.151 114.469 128.289 116.465 125.999 117.859C123.71 119.253 121.082 119.991 118.401 119.992V119.992Z" fill="#F5F8FC"/>
<path d="M146.371 146.056H88.5708V87.6605H116.526C117.333 87.6617 118.126 87.8738 118.825 88.276C119.525 88.6781 120.108 89.2561 120.515 89.9528L132.528 110.614L143.647 116.881C144.529 117.376 145.262 118.098 145.77 118.972C146.278 119.847 146.542 120.841 146.535 121.852L146.371 146.056ZM90.0593 144.568H144.897L145.046 121.852C145.048 121.106 144.851 120.373 144.477 119.727C144.104 119.081 143.565 118.546 142.918 118.176L132.185 112.132L132.036 112.43C130.75 114.936 128.795 117.039 126.389 118.504C123.983 119.97 121.219 120.742 118.401 120.736H99.0502V95.8475H122.242L119.265 90.6971C118.979 90.2374 118.579 89.8591 118.105 89.5984C117.63 89.3377 117.097 89.2034 116.556 89.2085H90.0593V144.568ZM100.479 119.262H118.342C120.88 119.275 123.373 118.587 125.545 117.274C127.717 115.961 129.484 114.073 130.652 111.82L130.846 111.447L122.956 97.4104H100.524L100.479 119.262Z" fill="#011631"/>
<path d="M122.272 160.183C130.493 160.183 137.157 153.518 137.157 145.297C137.157 137.076 130.493 130.412 122.272 130.412C114.051 130.412 107.386 137.076 107.386 145.297C107.386 153.518 114.051 160.183 122.272 160.183Z" fill="#E5E9ED"/>
<path d="M122.286 160.942C119.19 160.951 116.161 160.041 113.583 158.327C111.004 156.613 108.992 154.173 107.801 151.315C106.61 148.457 106.294 145.31 106.892 142.272C107.491 139.235 108.977 136.443 111.164 134.251C113.35 132.058 116.137 130.564 119.173 129.956C122.209 129.349 125.357 129.656 128.218 130.839C131.08 132.022 133.526 134.027 135.247 136.601C136.968 139.174 137.886 142.201 137.886 145.297C137.883 149.437 136.239 153.408 133.316 156.339C130.392 159.271 126.427 160.926 122.286 160.942V160.942ZM122.286 131.171C119.485 131.168 116.746 131.996 114.416 133.55C112.086 135.105 110.269 137.315 109.196 139.903C108.123 142.49 107.841 145.338 108.387 148.085C108.933 150.832 110.281 153.356 112.262 155.337C114.242 157.317 116.766 158.666 119.513 159.212C122.261 159.757 125.108 159.476 127.696 158.403C130.283 157.329 132.494 155.513 134.048 153.182C135.603 150.852 136.431 148.113 136.428 145.312C136.424 141.561 134.933 137.965 132.282 135.312C129.632 132.658 126.037 131.164 122.286 131.156V131.171Z" fill="#011631"/>
<path d="M122.286 153.916C122.126 153.934 121.963 153.918 121.809 153.869C121.655 153.821 121.514 153.74 121.393 153.632C121.273 153.525 121.176 153.393 121.11 153.246C121.044 153.098 121.01 152.938 121.01 152.777C121.01 152.615 121.044 152.456 121.11 152.308C121.176 152.161 121.273 152.029 121.393 151.922C121.514 151.814 121.655 151.733 121.809 151.684C121.963 151.636 122.126 151.62 122.286 151.638C123.913 151.559 125.447 150.858 126.571 149.678C127.694 148.499 128.321 146.933 128.321 145.304C128.321 143.676 127.694 142.11 126.571 140.93C125.447 139.751 123.913 139.05 122.286 138.971C122.126 138.989 121.963 138.973 121.809 138.924C121.655 138.876 121.514 138.795 121.393 138.687C121.273 138.58 121.176 138.448 121.11 138.3C121.044 138.153 121.01 137.993 121.01 137.832C121.01 137.67 121.044 137.511 121.11 137.363C121.176 137.216 121.273 137.084 121.393 136.977C121.514 136.869 121.655 136.788 121.809 136.739C121.963 136.691 122.126 136.675 122.286 136.693C124.508 136.786 126.609 137.733 128.148 139.338C129.687 140.943 130.547 143.081 130.547 145.304C130.547 147.528 129.687 149.666 128.148 151.271C126.609 152.876 124.508 153.823 122.286 153.916V153.916Z" fill="#9099A6"/>
<path d="M53.3965 160.183C61.6175 160.183 68.2819 153.518 68.2819 145.297C68.2819 137.076 61.6175 130.412 53.3965 130.412C45.1754 130.412 38.511 137.076 38.511 145.297C38.511 153.518 45.1754 160.183 53.3965 160.183Z" fill="#E5E9ED"/>
<path d="M53.3964 160.942C50.3016 160.945 47.2754 160.029 44.7007 158.312C42.126 156.595 40.1184 154.153 38.932 151.294C37.7457 148.436 37.4337 145.29 38.0357 142.254C38.6376 139.218 40.1265 136.429 42.3138 134.24C44.5012 132.05 47.2888 130.559 50.324 129.954C53.3591 129.349 56.5055 129.658 59.3651 130.842C62.2246 132.025 64.6688 134.031 66.3885 136.604C68.1083 139.177 69.0262 142.202 69.0262 145.297C69.0222 149.442 67.3748 153.417 64.4449 156.35C61.515 159.282 57.5418 160.934 53.3964 160.942V160.942ZM53.3964 131.171C50.5953 131.168 47.8564 131.996 45.5261 133.55C43.1959 135.105 41.3792 137.315 40.3059 139.903C39.2326 142.49 38.951 145.337 39.4967 148.085C40.0425 150.832 41.391 153.356 43.3717 155.337C45.3524 157.317 47.8761 158.666 50.6235 159.212C53.3709 159.757 56.2184 159.476 58.8057 158.402C61.393 157.329 63.6038 155.512 65.1581 153.182C66.7125 150.852 67.5406 148.113 67.5376 145.312C67.5337 141.561 66.043 137.965 63.3923 135.312C60.7416 132.658 57.1471 131.164 53.3964 131.156V131.171Z" fill="#011631"/>
<path d="M53.3963 153.916C53.2359 153.934 53.0733 153.918 52.9194 153.869C52.7654 153.821 52.6235 153.74 52.503 153.632C52.3824 153.525 52.286 153.393 52.22 153.246C52.1539 153.098 52.1198 152.938 52.1198 152.777C52.1198 152.615 52.1539 152.456 52.22 152.308C52.286 152.161 52.3824 152.029 52.503 151.922C52.6235 151.814 52.7654 151.733 52.9194 151.684C53.0733 151.636 53.2359 151.62 53.3963 151.638C55.023 151.559 56.557 150.858 57.6804 149.678C58.8038 148.499 59.4304 146.933 59.4304 145.304C59.4304 143.676 58.8038 142.11 57.6804 140.93C56.557 139.751 55.023 139.05 53.3963 138.971C53.2359 138.989 53.0733 138.973 52.9194 138.924C52.7654 138.876 52.6235 138.795 52.503 138.687C52.3824 138.58 52.286 138.448 52.22 138.3C52.1539 138.153 52.1198 137.993 52.1198 137.832C52.1198 137.67 52.1539 137.511 52.22 137.363C52.286 137.216 52.3824 137.084 52.503 136.977C52.6235 136.869 52.7654 136.788 52.9194 136.739C53.0733 136.691 53.2359 136.675 53.3963 136.693C55.6182 136.786 57.7184 137.733 59.2579 139.338C60.7974 140.943 61.6569 143.081 61.6569 145.304C61.6569 147.528 60.7974 149.666 59.2579 151.271C57.7184 152.876 55.6182 153.823 53.3963 153.916V153.916Z" fill="#9099A6"/>
<defs>
<linearGradient id="paint0_linear_622_7202" x1="130.416" y1="21.5523" x2="130.416" y2="124.535" gradientUnits="userSpaceOnUse">
<stop stop-color="#80A9F8" stop-opacity="0"/>
<stop offset="1" stop-color="#1A54E4"/>
</linearGradient>
</defs>
</svg>
