<svg xmlns="http://www.w3.org/2000/svg" viewBox="0 0 207 149"><defs><style>.cls-1{fill:#fff;}</style></defs><g id="Layer_2" data-name="Layer 2"><g id="Layer_1-2" data-name="Layer 1"><g id="Page-1"><g id="press-page-news-furniture-today"><g id="Mask"><rect id="path-1" class="cls-1" width="207" height="149" rx="4"/></g><g id="img-340X102-Clipped"><g id="path-1-2" data-name="path-1"><rect id="path-1-3" data-name="path-1" class="cls-1" width="207" height="149" rx="4"/></g></g></g></g><path d="M74.75,88.46l-3-1.78a5.77,5.77,0,0,1-4.58,1.51c-2.48-.13-3.67-1.19-3.7-3.65-.07-4,0-8.06,0-12.08V70.83l-2.62-.37.06-.58,2.52-.18V65h3.76v4.84h4.11l.08.62c-.58.09-1.15.21-1.73.25s-1.44,0-2.13,0c-.12.21-.24.33-.24.45,0,4.46,0,8.92,0,13.38,0,1.75.82,2.52,2.2,2.38s2-1.08,1.89-2.65c-.28-3.79,1-5.49,4.67-6.42,1.87-.47,3.74-1,5.61-1.46a5.57,5.57,0,0,0,.77-.34c0-.87,0-1.77,0-2.66-.12-2.15-1-3-2.83-3.08-2.2,0-3,.68-3.24,2.94-.17,1.59-.65,2.06-2,2-1.06,0-1.6-.55-1.52-1.64a3.77,3.77,0,0,1,2.62-3.48A11.84,11.84,0,0,1,83.45,70a3.61,3.61,0,0,1,2.63,3.45c.13,3,.12,6,.17,9.06,0,.91,0,1.83.06,2.73a1.72,1.72,0,0,0,2,1.82h3.31V62.42l-3.11-.33,0-.5h7V87H102V62.31H98.66l-.12-.4c.2-.16.41-.46.61-.46,4.55,0,9.1,0,13.63.27,3.25.23,4.8,2.2,4.94,5.35.16,3.66-1.15,5.55-4.45,6.4-.41.1-.82.22-1.58.43l2.2.42c3.41.67,4.61,2,5,5.39.11,1.15.17,2.3.27,3.45.28,3.18.48,3.41,3.8,4.2-.44.3-.68.59-.92.59a32.28,32.28,0,0,1-4.06-.14,3.12,3.12,0,0,1-2.78-2.91c-.27-1.79-.43-3.61-.59-5.42-.32-3.52-1.62-4.78-5.14-4.88-1,0-1.91,0-3,0V87l3.42.21v.61a9.5,9.5,0,0,1-1.29.17H86.32c-1.75,0-3.45-.09-4-1.9l-4.09,2.38Zm31.71-15c2.42,0,4.8.46,6.25-2,1.16-1.95,1.05-6-.25-7.58-1.62-1.91-3.82-1.63-6-1.58ZM82.62,77.05l-2.47.72c-4.43,1.29-5.06,2.22-4.54,6.79.12,1.12.4,2.24,1.65,2.63a2.93,2.93,0,0,0,3.25-1,5.37,5.37,0,0,0,1.33-2.34C82.22,81.69,82.36,79.51,82.62,77.05Z"/><path d="M150,88.46l-3.23-1.76c-1.24,1.37-3.09,1.65-5.09,1.45-1.83-.18-2.89-1.05-3.05-2.87-.2-2.19-.16-4.4-.19-6.61,0-2.58,0-5.17,0-7.89l-2.76-.24c.71-1.3,1.81-.39,2.69-1.05V65h3.88v4.72l4.22.22,0,.66h-4.1c0,.79-.08,1.3-.08,1.81,0,3.55,0,7.1,0,10.65,0,.39,0,.77,0,1.15.15,2.07.78,2.84,2.21,2.7s2.08-1.14,1.91-3c-.27-3.15.89-4.92,3.95-5.81,2.36-.69,4.75-1.25,7.13-1.87a27.15,27.15,0,0,0,0-3c-.24-2.18-1.12-2.93-3.18-2.87s-2.69.77-2.87,3c-.11,1.51-.81,2.11-2.23,1.92-1.18-.16-1.55-.89-1.21-2.41a3.66,3.66,0,0,1,2.42-2.67,11.72,11.72,0,0,1,8.23-.07c1.94.68,2.66,2.28,2.68,4.2,0,3.16,0,6.33,0,9.5,0,3,.27,3.29,3.27,3.34.67,0,1.35,0,2.14,0V70.78l-3.12-.27.07-.57h6.91V87h5.66V62.29h-3.09c.42-.95,2.51-1.14,6.94-.78v25.4l3.3.41-.08.53a7.91,7.91,0,0,1-1.09.13h-21c-1.66,0-3.26-.14-3.75-1.87l-4.27,2.36Zm7.78-11.4c-1.54.43-2.69.73-3.83,1.08-2.61.78-3.25,1.6-3.33,4.3a14.66,14.66,0,0,0,.13,2.29c.14,1.13.48,2.22,1.77,2.51a3,3,0,0,0,3.21-1.19A5.81,5.81,0,0,0,157,83.68C157.34,81.59,157.48,79.46,157.75,77.06Z"/><path d="M23.93,61.4H47.68v8.7a10.65,10.65,0,0,1-1-.77c-.08-.07,0-.27-.07-.41-.82-5.36-3-7-8.52-6.25V87l4.06.26,0,.56H29.76l-.09-.5c.6-.07,1.18-.18,1.78-.21s1.43,0,2.24,0V62.72c-5.51-1-7.9.92-8.7,7L23.93,70Z"/><path d="M51.52,88.46C45.47,86,43,80.89,45.16,75a8,8,0,0,1,8-5.65A8,8,0,0,1,61.25,75a11.13,11.13,0,0,1-1,9.93c-1.21,2-3.17,2.82-5.22,3.57Zm-2.89-10.1c.12,2,.2,3.38.31,4.81a6.34,6.34,0,0,0,.28,1.26,4,4,0,0,0,4,3.14,3.74,3.74,0,0,0,4-3.1,25.16,25.16,0,0,0,0-11.09,3.68,3.68,0,0,0-4.08-3.11,3.69,3.69,0,0,0-3.87,3.19A46.9,46.9,0,0,0,48.63,78.36Z"/><path d="M127,88.46c-6.4-2.7-8.75-9.28-5.35-15a8.43,8.43,0,0,1,9.49-3.87A7.64,7.64,0,0,1,137,77c0,.19-.05.38-.09.74H124.49a15.83,15.83,0,0,0,.92,6.78c1.51,3.43,6.65,3.88,9.24.81a22.63,22.63,0,0,0,1.22-1.94,1.4,1.4,0,0,1,.87-.57,6.75,6.75,0,0,1-4.33,5.1l-1.61.56Zm-2.53-11.94h8.06c-.06-2.17.11-4.32-1.87-5.69a3.29,3.29,0,0,0-3.83-.07C124.84,72.11,124.63,74.27,124.49,76.52Z"/><path d="M168.72,61.75a2.22,2.22,0,0,1,0,4.43,2.22,2.22,0,0,1,0-4.43Z"/></g></g></svg>